<?xml version="1.0" encoding="utf-8"?>
<!-- Generator: Adobe Illustrator 27.8.1, SVG Export Plug-In . SVG Version: 6.00 Build 0)  -->
<svg version="1.1" id="Layer_1" xmlns="http://www.w3.org/2000/svg" xmlns:xlink="http://www.w3.org/1999/xlink" x="0px" y="0px"
	 viewBox="0 0 190 40" style="enable-background:new 0 0 190 40;" xml:space="preserve">
<style type="text/css">
	.st0{fill:#FFFFFF;}
	.st1{fill:#AD004E;}
</style>
<path class="st0" d="M25.2,15.9h3.5L26.4,29h-6l-1.9-10.4h-2.1l1.9,0.7L16.6,29h-3.5l2.3-13.1h6l1.9,10.4L25.2,15.9z"/>
<path class="st0" d="M41.4,15.9c0.3,0,0.6,0.1,0.8,0.2c0.3,0.1,0.5,0.3,0.7,0.6c0.2,0.2,0.3,0.5,0.4,0.8c0.1,0.3,0.1,0.6,0,1
	l-1.5,8.8c-0.1,0.5-0.3,0.9-0.7,1.3c-0.4,0.3-0.8,0.5-1.2,0.5h-8.5c-0.3,0-0.6-0.1-0.9-0.2s-0.5-0.3-0.6-0.6
	c-0.2-0.2-0.3-0.5-0.4-0.8s-0.1-0.6,0-1l1.6-8.7c0.1-0.5,0.3-1,0.7-1.3S32.6,16,33,16h8.4V15.9z M33.2,25.8c0.1,0.1,0.2,0.2,0.3,0.2
	h4.6c0.2,0,0.3-0.1,0.4-0.4l1.1-6.1c0-0.1,0-0.3-0.1-0.4S39.3,19,39.2,19h-4.6c-0.1,0-0.2,0-0.2,0.1c-0.1,0.1-0.1,0.2-0.1,0.3
	l-1.1,6.1C33.1,25.6,33.1,25.7,33.2,25.8z"/>
<path class="st0" d="M48.3,15.9L50,26l4.5-10.1h4.1l-6,13.1h-5.8l-2.1-13.1H48.3z"/>
<path class="st0" d="M67,25.3h-5L61.3,29h-3.5l2-11.4c0.1-0.5,0.3-1,0.7-1.3s0.8-0.5,1.2-0.5h8.1c0.3,0,0.6,0.1,0.9,0.2
	s0.5,0.3,0.6,0.6c0.2,0.2,0.3,0.5,0.4,0.8s0.1,0.6,0,1L69.9,29h-3.5L67,25.3z M62.5,22.2h5.1l0.5-2.8c0-0.1,0-0.3-0.1-0.4
	s-0.2,0-0.3,0h-4.3c-0.2,0-0.4,0.1-0.4,0.4L62.5,22.2z"/>
<path class="st1" d="M101.5,11h5.3l-3.5,19.8h-9.1l-2.8-15.7h-3.1l2.9,1l-2.6,14.7h-5.3L86.8,11h9.1l2.8,15.7L101.5,11z"/>
<path class="st1" d="M112,15.7l2.9,1l-0.4,2.1h9.4l-0.8,4.3h-9.4l-0.4,2.3c0,0.2,0,0.4,0.1,0.6s0.3,0.2,0.5,0.2h10.4l-0.8,4.6h-12.8
	c-0.5,0-0.9-0.1-1.3-0.3c-0.4-0.2-0.7-0.5-1-0.9s-0.4-0.8-0.6-1.3c-0.1-0.5-0.1-1-0.1-1.5l2.8-15.8h16.4l-0.8,4.6L112,15.7L112,15.7
	z"/>
<path class="st1" d="M145.5,30.8l-2.2-12.2l-5.7,12.2h-9.5l3.2-19.8h5.4l-2.2,14.9l-3.1,1h2.9l7.3-15.8h5l3.2,15.8l3.2-15.8h5.4
	l-3.8,19.8L145.5,30.8L145.5,30.8z"/>
<path class="st1" d="M159.7,26.5l0.3-1.6h5.3l-0.1,0.5c0,0.2,0,0.4,0.1,0.6s0.3,0.2,0.5,0.2h9.9l-2.9-1l0.3-1.5c0-0.2,0-0.4-0.1-0.6
	s-0.3-0.2-0.5-0.2h-8.1c-0.5,0-1-0.1-1.4-0.4c-0.4-0.2-0.8-0.6-1.1-1s-0.5-0.9-0.6-1.4s-0.1-1.1,0-1.6l0.8-4.6
	c0.2-0.8,0.5-1.5,1.1-2.1c0.6-0.5,1.3-0.8,2-0.8h11.6c0.5,0,1,0.1,1.4,0.4c0.4,0.2,0.8,0.6,1.1,1s0.5,0.9,0.6,1.4s0.2,1.1,0.1,1.6
	l-0.3,1.6h-5.3l0.1-0.5c0-0.2,0-0.4-0.1-0.6c-0.1-0.2-0.3-0.2-0.5-0.2h-10l2.9,1l-0.2,1.2c0,0.2,0,0.4,0.1,0.6s0.3,0.2,0.5,0.2h6.7
	c0.5,0,0.9,0,1.2,0h0.5c0.5,0,0.9,0.2,1.3,0.4c0.4,0.3,0.7,0.6,1,1s0.5,0.8,0.6,1.3s0.1,1,0,1.6l-0.9,5c-0.2,0.8-0.5,1.5-1.1,2.1
	c-0.6,0.5-1.3,0.8-2,0.8H163c-0.5,0-1-0.1-1.4-0.4c-0.4-0.2-0.8-0.6-1.1-1s-0.5-0.9-0.6-1.4C159.6,27.6,159.6,27.1,159.7,26.5z"/>
</svg>
