<?xml version="1.0" encoding="utf-8"?>
<!-- Generator: Adobe Illustrator 27.8.1, SVG Export Plug-In . SVG Version: 6.00 Build 0)  -->
<svg version="1.1" xmlns="http://www.w3.org/2000/svg" xmlns:xlink="http://www.w3.org/1999/xlink" x="0px" y="0px"
	 viewBox="0 0 134 28" style="enable-background:new 0 0 134 28;" xml:space="preserve">
<style type="text/css">
	.st0{fill:#FFFFFF;}
	.st1{fill:#090504;}
	.st2{fill:#FCFCFC;}
	.st3{fill:#FD0000;}
</style>
<g id="Layer_1">
	<path class="st0" d="M28.2,16.4h-1.6l-1.9-5.6h1.6l1.1,3.4l1.1-3.4H30l1.1,3.4l1.1-3.4h1.6l-1.9,5.6h-1.6l-1-3.1L28.2,16.4z"/>
	<path class="st0" d="M37.7,16.4H36l-1.9-5.6h1.6l1.1,3.4l1.1-3.4h1.5l1.1,3.4l1.1-3.4h1.6l-1.9,5.6h-1.6l-1-3.1L37.7,16.4z"/>
	<path class="st0" d="M47.1,16.4h-1.6l-1.9-5.6h1.6l1.1,3.4l1.1-3.4h1.5l1.1,3.4l1.1-3.4h1.6l-1.9,5.6h-1.6l-1-3.1L47.1,16.4z"/>
	<path class="st0" d="M53.5,16.3c-0.2-0.2-0.3-0.4-0.3-0.7c0-0.3,0.1-0.5,0.3-0.7c0.2-0.2,0.4-0.3,0.7-0.3c0.3,0,0.5,0.1,0.7,0.3
		c0.2,0.2,0.3,0.4,0.3,0.7c0,0.3-0.1,0.5-0.3,0.7c-0.2,0.2-0.4,0.3-0.7,0.3C53.9,16.5,53.7,16.4,53.5,16.3z"/>
	<path class="st0" d="M59.7,10.7c0.7,0,1.2,0.3,1.8,0.8c0.5,0.5,0.8,1.2,0.8,2.1c0,0.8-0.3,1.5-0.8,2.1c-0.5,0.6-1.1,0.8-1.8,0.8
		c-0.7,0-1.2-0.3-1.7-0.8v2.8h-1.6v-7.7H58v0.6C58.5,10.9,59,10.7,59.7,10.7z M58,13.6c0,0.5,0.1,0.8,0.4,1.1
		c0.3,0.3,0.6,0.4,0.9,0.4c0.4,0,0.7-0.1,1-0.4c0.3-0.3,0.4-0.7,0.4-1.1c0-0.5-0.1-0.8-0.4-1.1c-0.3-0.3-0.6-0.5-1-0.5
		c-0.4,0-0.7,0.2-0.9,0.5C58.1,12.8,58,13.2,58,13.6z"/>
	<path class="st0" d="M69,13.6c0,0.8-0.3,1.5-0.8,2.1c-0.6,0.6-1.3,0.8-2.1,0.8c-0.9,0-1.6-0.3-2.1-0.8c-0.6-0.6-0.9-1.2-0.9-2.1
		c0-0.8,0.3-1.5,0.9-2.1c0.6-0.6,1.3-0.8,2.1-0.8c0.9,0,1.6,0.3,2.1,0.8C68.8,12.1,69,12.8,69,13.6z M64.7,13.6
		c0,0.5,0.1,0.8,0.4,1.1c0.3,0.3,0.6,0.4,1,0.4c0.4,0,0.7-0.1,1-0.4c0.3-0.3,0.4-0.7,0.4-1.1c0-0.5-0.1-0.8-0.4-1.1
		c-0.3-0.3-0.6-0.4-1-0.4c-0.4,0-0.7,0.1-1,0.4C64.8,12.8,64.7,13.2,64.7,13.6z"/>
	<path class="st0" d="M71.8,16.4h-1.6V8.7h1.6V16.4z"/>
	<path class="st0" d="M73.4,10.1c-0.2-0.2-0.3-0.4-0.3-0.7c0-0.3,0.1-0.5,0.3-0.7c0.2-0.2,0.4-0.3,0.7-0.3s0.5,0.1,0.7,0.3
		C74.9,8.9,75,9.2,75,9.4c0,0.3-0.1,0.5-0.3,0.7c-0.2,0.2-0.4,0.3-0.7,0.3S73.6,10.3,73.4,10.1z M74.9,16.4h-1.6v-5.6h1.6V16.4z"/>
	<path class="st0" d="M80,13.8v-3h1.6v5.6H80v-0.7c-0.4,0.6-0.9,0.8-1.5,0.8c-0.6,0-1.1-0.2-1.6-0.6c-0.4-0.4-0.6-1-0.6-1.7v-3.4
		h1.6v3.1c0,0.9,0.3,1.3,1,1.3c0.3,0,0.6-0.1,0.8-0.3C79.9,14.6,80,14.3,80,13.8z"/>
	<path class="st0" d="M86.3,10.7c0.7,0,1.2,0.3,1.8,0.8c0.5,0.5,0.8,1.2,0.8,2.1c0,0.8-0.3,1.5-0.8,2.1c-0.5,0.6-1.1,0.8-1.8,0.8
		s-1.2-0.3-1.7-0.8v2.8h-1.6v-7.7h1.6v0.6C85.1,10.9,85.7,10.7,86.3,10.7z M84.6,13.6c0,0.5,0.1,0.8,0.4,1.1
		c0.3,0.3,0.6,0.4,0.9,0.4c0.4,0,0.7-0.1,1-0.4c0.3-0.3,0.4-0.7,0.4-1.1c0-0.5-0.1-0.8-0.4-1.1c-0.3-0.3-0.6-0.5-1-0.5
		c-0.4,0-0.7,0.2-0.9,0.5C84.7,12.8,84.6,13.2,84.6,13.6z"/>
	<path class="st0" d="M94.2,15.5c-0.5,0.6-1.1,0.8-1.9,0.8c-0.7,0-1.4-0.3-1.9-0.8c-0.5-0.5-0.8-1.2-0.8-2s0.3-1.5,0.8-2.1
		c0.5-0.5,1.1-0.8,1.8-0.8s1.2,0.3,1.7,0.8v-0.7h1.6v4.9c0,0.5-0.1,1-0.3,1.3c-0.2,0.4-0.4,0.7-0.7,0.9c-0.6,0.5-1.3,0.7-2.1,0.7
		c-0.4,0-0.8-0.1-1.3-0.2c-0.4-0.1-0.8-0.3-1.1-0.6l0.6-1.2c0.5,0.4,1.1,0.6,1.6,0.6c0.6,0,1-0.1,1.4-0.4
		C94.1,16.6,94.2,16.1,94.2,15.5z M94,13.5c0-0.5-0.1-0.8-0.4-1.1c-0.3-0.3-0.6-0.4-0.9-0.4s-0.7,0.1-1,0.4
		c-0.3,0.3-0.4,0.6-0.4,1.1c0,0.4,0.1,0.8,0.4,1.1c0.3,0.3,0.6,0.4,1,0.4s0.7-0.1,0.9-0.4C93.9,14.3,94,14,94,13.5z"/>
	<path class="st0" d="M97.2,16.3c-0.2-0.2-0.3-0.4-0.3-0.7c0-0.3,0.1-0.5,0.3-0.7c0.2-0.2,0.4-0.3,0.7-0.3s0.5,0.1,0.7,0.3
		c0.2,0.2,0.3,0.4,0.3,0.7c0,0.3-0.1,0.5-0.3,0.7c-0.2,0.2-0.4,0.3-0.7,0.3S97.3,16.4,97.2,16.3z"/>
	<path class="st0" d="M104.9,16.4h-1.5v-0.7c-0.4,0.5-0.9,0.8-1.5,0.8c-0.6,0-1.1-0.2-1.5-0.5c-0.4-0.3-0.6-0.8-0.6-1.4
		s0.2-1,0.6-1.3c0.4-0.3,1-0.4,1.7-0.4h1.2v0c0-0.6-0.3-0.9-1-0.9c-0.3,0-0.6,0.1-0.9,0.2c-0.3,0.1-0.6,0.2-0.8,0.4l-0.7-1
		c0.7-0.5,1.6-0.8,2.5-0.8c0.7,0,1.2,0.2,1.7,0.5c0.4,0.3,0.7,0.9,0.7,1.6V16.4z M103.3,14.3V14h-1c-0.6,0-0.9,0.2-0.9,0.6
		c0,0.2,0.1,0.4,0.2,0.5c0.2,0.1,0.4,0.2,0.6,0.2c0.3,0,0.5-0.1,0.7-0.3C103.2,14.8,103.3,14.6,103.3,14.3z"/>
	<path class="st0" d="M109,15.1c0.5,0,1-0.3,1.4-0.8l0.9,1c-0.7,0.8-1.5,1.1-2.4,1.1s-1.6-0.3-2.1-0.8c-0.6-0.5-0.9-1.2-0.9-2.1
		c0-0.9,0.3-1.6,0.9-2.1c0.6-0.5,1.3-0.8,2.1-0.8c0.4,0,0.8,0.1,1.2,0.3c0.4,0.2,0.8,0.4,1.1,0.7l-0.8,1.1c-0.2-0.2-0.4-0.4-0.7-0.5
		c-0.3-0.1-0.5-0.2-0.8-0.2c-0.4,0-0.8,0.1-1.1,0.4c-0.3,0.3-0.4,0.6-0.4,1.1c0,0.5,0.1,0.9,0.4,1.1C108.3,15,108.6,15.1,109,15.1z"
		/>
	<path class="st0" d="M112.5,16.3c-0.2-0.2-0.3-0.4-0.3-0.7c0-0.3,0.1-0.5,0.3-0.7c0.2-0.2,0.4-0.3,0.7-0.3c0.3,0,0.5,0.1,0.7,0.3
		c0.2,0.2,0.3,0.4,0.3,0.7c0,0.3-0.1,0.5-0.3,0.7c-0.2,0.2-0.4,0.3-0.7,0.3C112.9,16.5,112.7,16.4,112.5,16.3z"/>
	<path class="st0" d="M115.6,10.1c-0.2-0.2-0.3-0.4-0.3-0.7c0-0.3,0.1-0.5,0.3-0.7c0.2-0.2,0.4-0.3,0.7-0.3s0.5,0.1,0.7,0.3
		c0.2,0.2,0.3,0.4,0.3,0.7c0,0.3-0.1,0.5-0.3,0.7c-0.2,0.2-0.4,0.3-0.7,0.3S115.7,10.3,115.6,10.1z M117,16.4h-1.6v-5.6h1.6V16.4z"
		/>
	<path class="st0" d="M120.8,16.5c-0.7,0-1.3-0.3-1.8-0.9c-0.5-0.6-0.8-1.3-0.8-2.1s0.3-1.5,0.8-2.1c0.5-0.5,1.1-0.8,1.8-0.8
		c0.7,0,1.2,0.2,1.7,0.7V8.7h1.6v7.8h-1.6v-0.7C122,16.3,121.4,16.5,120.8,16.5z M119.8,13.6c0,0.5,0.1,0.8,0.4,1.1
		c0.3,0.3,0.6,0.4,1,0.4c0.4,0,0.7-0.1,0.9-0.4c0.3-0.3,0.4-0.7,0.4-1.1c0-0.5-0.1-0.8-0.4-1.1s-0.6-0.5-0.9-0.5
		c-0.4,0-0.7,0.2-1,0.5C119.9,12.8,119.8,13.2,119.8,13.6z"/>
	<path class="st0" d="M129.4,8h1.5l-4.4,9.6H125L129.4,8z"/>
</g>
<g id="Layer_2">
	<path class="st1" d="M8.5,13.8c-0.3-0.5-0.7-0.8-1.2-0.9c-0.4-0.1-0.8,0-1.2,0.1c-0.4,0.2-0.8,0.4-1.2,0.4c-0.7,0.1-1.3,0-1.8-0.5
		c-0.2-0.2-0.3-0.4-0.4-0.6c-0.1-0.3-0.1-0.5-0.2-0.8c0,0,0,0,0-0.1c0-0.2,0-0.5,0-0.7c0-0.1,0-0.3,0.1-0.4C2.7,9.9,2.8,9.5,3,9.1
		C3,9,3,9,3.1,8.9c0,0.2,0,0.5,0,0.7c0,0.6,0.2,1.1,0.6,1.6c0.3,0.3,0.6,0.5,0.9,0.7c0.1,0,0.1,0,0.1,0c0-0.6,0.1-1.2,0.3-1.8
		c0,0,0,0,0,0c-0.3,0.2-0.5,0.2-0.7,0c-0.1,0.2-0.1,0.4-0.1,0.6c0.1,0.3,0.2,0.6,0.4,0.9c0.1,0.1,0.1,0.2,0,0.3
		c-0.5-0.2-0.8-0.5-1-0.9c-0.5-0.8-0.4-1.6,0-2.5C3.8,8,4.1,7.7,4.4,7.5c0,0,0.1-0.1,0.1,0c0,0,0,0.1,0,0.1c0,0.3-0.1,0.7,0,1
		C4.6,8.7,4.6,8.9,4.8,9c0.2,0.2,0.3,0.4,0.3,0.6c0,0.1,0,0.1,0,0.2c1-1.9,2.5-3,4.6-3c2.1,0,3.6,1,4.7,2.8c0-0.3,0.2-0.5,0.4-0.7
		C14.9,8.7,15,8.4,15,8.1c0-0.2,0-0.4,0-0.6c0,0,0-0.1,0-0.1c0,0,0.1,0,0.1,0c0.2,0.2,0.3,0.3,0.5,0.5c0.3,0.4,0.5,0.9,0.6,1.5
		c0,0.9-0.3,1.6-1,2.1c-0.1,0-0.1,0.1-0.2,0.1c-0.1,0-0.1,0.1-0.1,0.1c0,0.1,0,0.1,0.1,0c0.2-0.1,0.4-0.2,0.6-0.4
		c0.5-0.5,0.7-1.1,0.8-1.7c0-0.3,0-0.5,0-0.8c0.1,0,0.1,0.1,0.2,0.2c0.3,0.8,0.4,1.6,0.3,2.4c0,0.5-0.2,0.9-0.5,1.3
		c0,0.1-0.1,0.1-0.1,0.1c-0.6,0.5-1.3,0.6-2,0.4c-0.4-0.1-0.7-0.2-1-0.4c-0.5-0.2-1-0.2-1.5,0.1c-0.3,0.2-0.6,0.4-0.7,0.7
		c0,0,0,0,0,0c0,0,0,0,0,0c0.2-0.2,0.4-0.3,0.6-0.4c0.4-0.1,0.8,0,1.1,0.3c0.1,0.1,0.2,0.2,0.4,0.4c0.5,0.5,1.1,0.8,1.8,0.7
		c0.7,0,1.2-0.3,1.7-0.7c0,0,0-0.1,0.1-0.1c0.1,0,0,0.1,0,0.1c-0.2,0.4-0.4,0.8-0.7,1.2c-0.4,0.4-0.8,0.6-1.4,0.6
		c-0.3,0-0.6,0-1-0.1c-0.5-0.2-0.8-0.6-0.9-1.1c-0.1-0.2-0.1-0.5-0.3-0.7c-0.2-0.2-0.4-0.3-0.7-0.2c-0.2,0.1-0.6,0.4-0.7,0.6
		c0,0,0,0,0.1,0c0.1-0.1,0.2-0.1,0.3-0.1c0.3-0.1,0.5,0,0.5,0.3c0,0.2,0,0.4,0,0.6c0,0.5,0,1,0.4,1.4c0.3,0.3,0.6,0.4,1,0.5
		c0.3,0.1,0.7,0.1,1,0.1c0.1,0,0.1,0,0.2,0c-0.7,0.7-1.5,1-2.4,0.6c-0.5-0.2-0.8-0.7-0.9-1.2c-0.1-0.4,0-0.8,0.2-1.2
		c0.1-0.1,0.1-0.3,0.2-0.4c0-0.1,0.1-0.2,0-0.3c-0.1-0.1-0.2,0-0.2,0c-0.3,0.2-0.5,0.4-0.7,0.7c-0.1,0.1-0.1,0.1-0.1,0.2
		c0,0,0,0,0,0c0.1,0,0.2-0.1,0.3,0c0.1,0.1,0,0.2,0,0.3c0,0.1-0.2,0.1-0.3,0.1c0,0,0,0,0,0c0,0-0.1-0.1-0.1,0c0,0.1-0.1,0.2,0,0.2
		c0.2,0.2,0.1,0.5-0.1,0.6c-0.1,0-0.1,0.1-0.1,0.1c-0.1,0.3-0.2,0.6-0.3,1c-0.1-0.3-0.3-0.6-0.3-1c0-0.1,0-0.1-0.1-0.1
		C9,16.7,9,16.3,9.2,16.1c0.1-0.1,0.1-0.2,0-0.2c0,0,0,0,0,0c0,0-0.1,0-0.1,0c-0.2,0.1-0.4-0.1-0.3-0.3c0-0.1,0.1-0.2,0.3-0.1
		c0-0.1,0-0.2-0.1-0.3c-0.1-0.2-0.3-0.4-0.5-0.5c-0.1-0.1-0.2-0.1-0.3-0.2c-0.1,0-0.2,0-0.2,0.1c0,0.1,0,0.1,0.1,0.2
		c0.2,0.4,0.4,0.9,0.4,1.3c0,0.4-0.2,0.7-0.4,1C7.3,18,6.3,18,5.5,17.4c-0.2-0.1-0.3-0.2-0.5-0.4c0.1,0,0.1,0,0.2,0
		c0.4,0,0.9,0,1.3-0.1c0.6-0.2,1-0.5,1.1-1.2c0.1-0.3,0.1-0.6,0-0.9c0-0.2,0-0.3,0-0.5c0.1-0.2,0.2-0.2,0.4-0.2
		c0.2,0,0.3,0.1,0.4,0.2c0-0.1-0.1-0.1-0.1-0.2C8.3,14,8.1,13.9,8,13.8c-0.3-0.2-0.7-0.1-0.9,0.3c-0.1,0.2-0.2,0.3-0.2,0.5
		c-0.1,0.4-0.2,0.7-0.5,0.9c-0.3,0.3-0.6,0.4-1,0.4c-0.5,0-1-0.1-1.4-0.4c-0.3-0.2-0.5-0.5-0.7-0.8c-0.1-0.2-0.2-0.4-0.3-0.6
		c0,0,0-0.1,0-0.1c0.3,0.3,0.7,0.6,1.1,0.7c0.9,0.3,1.7,0.1,2.4-0.6c0.2-0.2,0.3-0.3,0.5-0.5c0.5-0.3,1-0.3,1.4,0
		C8.4,13.7,8.4,13.7,8.5,13.8C8.5,13.8,8.5,13.8,8.5,13.8C8.5,13.8,8.5,13.8,8.5,13.8C8.6,13.8,8.5,13.8,8.5,13.8
		C8.5,13.8,8.5,13.8,8.5,13.8z M14.5,10C14.5,10,14.5,10,14.5,10c-0.1-0.1-0.1-0.2-0.1-0.3C14.4,9.9,14.4,10,14.5,10
		C14.5,10.1,14.5,10.1,14.5,10C14.5,10,14.5,10,14.5,10z M8.9,14.2C8.8,14.2,8.8,14.2,8.9,14.2c-0.2-0.2-0.4-0.4-0.5-0.5
		c-0.2-0.2-0.4-0.3-0.7-0.3c-0.4,0-0.7,0.2-1,0.5c-0.1,0.2-0.3,0.3-0.5,0.4c-0.5,0.4-1,0.6-1.6,0.5c-0.5,0-0.9-0.2-1.3-0.5
		c0,0-0.1-0.1-0.2-0.1c0.1,0.2,0.2,0.3,0.3,0.5c0.2,0.3,0.4,0.5,0.8,0.7c0.5,0.2,0.9,0.3,1.4,0.2c0.3,0,0.6-0.2,0.8-0.4
		c0.3-0.3,0.4-0.6,0.5-1c0.1-0.2,0.1-0.4,0.2-0.5c0.2-0.3,0.5-0.4,0.8-0.2c0.2,0.1,0.3,0.2,0.5,0.3c0.2,0.2,0.4,0.4,0.5,0.7
		c0,0-0.1-0.1-0.1-0.1c-0.2-0.1-0.3-0.3-0.5-0.3c-0.2,0-0.4,0-0.4,0.2c0,0.1,0,0.2,0,0.4c0,0.3,0.1,0.6,0,0.9c0,0.3-0.2,0.6-0.3,0.8
		C7.1,16.8,6.7,17,6.3,17c-0.3,0.1-0.6,0.1-0.9,0.1c0,0-0.1,0-0.1,0c0,0,0,0,0,0.1c0.1,0.1,0.1,0.1,0.2,0.1c0.6,0.4,1.6,0.5,2.2,0
		c0.5-0.4,0.7-1,0.5-1.6c-0.1-0.3-0.2-0.5-0.3-0.8c-0.1-0.1-0.1-0.2-0.1-0.3c0-0.1,0.1-0.2,0.2-0.2c0.1,0,0.2,0,0.2,0.1
		c0.2,0.1,0.3,0.3,0.5,0.4c0.1,0.1,0.2,0.3,0.3,0.5c0,0.1,0,0.1,0,0.2c0,0-0.1,0.1-0.1,0c0,0,0-0.1-0.1-0.1c-0.1,0-0.1,0-0.1,0.1
		c0,0.1,0,0.2,0.1,0.2c0.1,0,0.2,0,0.3-0.1c0.1-0.1,0.3-0.2,0.4-0.3c0.1,0,0.1,0,0.2,0c0.1,0.1,0.3,0.2,0.5,0.3
		c0.1,0.1,0.2,0.1,0.3,0.1c0.1,0,0.1-0.1,0.1-0.2c0-0.1-0.1-0.1-0.1-0.1c-0.1,0-0.1,0.1-0.1,0.1c0,0,0,0,0,0c-0.1-0.1-0.1-0.2,0-0.3
		c0.1-0.3,0.4-0.5,0.6-0.7c0.1-0.1,0.2-0.2,0.4-0.2c0.1,0,0.2,0.1,0.2,0.2c0,0.1,0,0.2-0.1,0.3c-0.2,0.4-0.4,0.8-0.4,1.3
		c0,0.4,0.1,0.7,0.4,1c0.4,0.4,0.8,0.6,1.3,0.5c0.5,0,0.9-0.2,1.2-0.5c0,0,0.1-0.1,0.1-0.1c0,0-0.1,0-0.1,0c-0.4,0-0.9,0-1.3-0.2
		c-0.3-0.1-0.5-0.3-0.7-0.5c-0.3-0.4-0.4-0.9-0.3-1.5c0-0.2,0-0.3,0-0.5c0-0.2-0.1-0.3-0.3-0.3c-0.2,0-0.4,0.1-0.5,0.2
		c-0.1,0.1-0.2,0.2-0.3,0.2c0.2-0.4,0.5-0.7,0.9-0.9c0.3-0.2,0.6-0.1,0.8,0.2c0.1,0.1,0.2,0.3,0.2,0.5c0.1,0.3,0.2,0.5,0.3,0.8
		c0.3,0.5,0.7,0.7,1.2,0.7c0.2,0,0.3,0,0.5,0c0.4-0.1,0.8-0.2,1.1-0.5c0.2-0.2,0.4-0.5,0.6-0.8c0,0,0-0.1,0-0.1c0,0-0.1,0-0.1,0
		c-0.2,0.1-0.4,0.3-0.6,0.3c-0.4,0.2-0.9,0.2-1.3,0.2c-0.5-0.1-0.9-0.3-1.3-0.7c-0.2-0.2-0.3-0.3-0.5-0.5c-0.4-0.3-0.7-0.3-1.1-0.1
		c-0.3,0.1-0.5,0.4-0.7,0.6c0,0-0.1,0.1-0.1,0.1c0-0.1,0.1-0.3,0.2-0.4c0.2-0.4,0.5-0.7,0.9-0.9c0.4-0.2,0.8-0.3,1.2-0.2
		c0.3,0.1,0.6,0.2,0.8,0.3c0.6,0.2,1.1,0.4,1.7,0.3c0.6-0.1,1-0.5,1.2-1c0.1-0.3,0.2-0.7,0.2-1c0-0.4,0-0.8-0.1-1.1
		c0-0.2-0.1-0.4-0.2-0.7c0,0,0-0.1-0.1-0.1c0,0,0,0,0,0.1c0,0.2,0,0.3,0,0.5c-0.1,0.7-0.5,1.3-1.1,1.8c-0.3,0.2-0.6,0.3-0.9,0.3
		c-0.4,0-0.7,0-1.1,0c-0.3,0-0.6,0.1-0.9,0.1c-0.6,0.2-1.1,0.5-1.4,1c-0.1,0.1-0.2,0.2-0.3,0.3c-0.2,0.2-0.4,0.2-0.6,0.1
		c-0.1-0.1-0.1-0.2-0.2-0.2c0,0,0,0-0.1,0c0,0,0,0,0,0.1c0,0.1,0,0.1-0.1,0.2c0,0,0-0.1-0.1-0.1c0,0,0-0.1,0-0.1
		c-0.1,0-0.1,0.1-0.1,0.1c0,0,0,0,0,0c-0.2,0.3-0.4,0.3-0.7,0.1c-0.2-0.1-0.3-0.3-0.4-0.5c-0.3-0.3-0.5-0.5-0.9-0.7
		c-0.5-0.3-1.1-0.3-1.6-0.4c-0.3,0-0.5,0-0.8,0c-0.1,0-0.3,0-0.4-0.1c-0.7-0.2-1.2-0.7-1.5-1.3C3.1,10.4,3,10,3,9.6c0,0,0-0.1,0-0.1
		c0,0-0.1,0-0.1,0.1c-0.2,0.5-0.2,1-0.2,1.5c0,0.3,0,0.6,0.1,0.9c0.1,0.3,0.2,0.6,0.4,0.9c0.3,0.3,0.8,0.5,1.2,0.5
		c0.4,0,0.8-0.1,1.2-0.2c0.3-0.1,0.5-0.2,0.8-0.3c0.5-0.1,0.9-0.1,1.3,0.1c0.2,0.1,0.5,0.3,0.6,0.5C8.6,13.7,8.8,14,8.9,14.2
		L8.9,14.2z M12.1,12.3c0.3-0.1,0.5-0.2,0.8-0.2C13.2,12,13.6,12,14,12c0.1,0,0.1,0,0.1-0.1c0-0.3,0-0.5-0.1-0.8
		c0-0.1,0-0.1-0.1-0.1c-0.1,0-0.3,0-0.4,0.1c-0.1,0-0.1,0-0.1-0.1c-0.1-0.5-0.3-0.9-0.6-1.3c0,0,0-0.1,0-0.1
		c0.1-0.1,0.2-0.2,0.4-0.3c0,0,0,0,0-0.1c-0.3-0.4-0.6-0.7-1-1c0,0-0.1,0-0.1,0c-0.1,0.1-0.2,0.3-0.3,0.4c0,0,0,0-0.1,0
		c-0.4-0.3-0.8-0.4-1.3-0.5c0,0-0.1,0,0-0.1c0-0.2,0.1-0.3,0.1-0.5c0-0.1,0-0.1-0.1-0.1c-0.4-0.1-0.9-0.1-1.3,0C9,7.6,9,7.7,9,7.7
		c0,0.1,0.1,0.3,0.1,0.4c0,0.1,0,0.1-0.1,0.1C8.6,8.4,8.2,8.5,7.8,8.8c-0.1,0-0.1,0-0.1,0C7.6,8.6,7.5,8.5,7.4,8.4
		c0-0.1-0.1-0.1-0.1,0C7,8.6,6.6,8.9,6.3,9.3c0,0,0,0.1,0,0.1c0.1,0.1,0.2,0.2,0.4,0.3c0,0,0,0.1,0,0.1c-0.3,0.4-0.5,0.8-0.6,1.3
		c0,0.1,0,0.1-0.1,0.1c-0.2,0-0.3,0-0.5-0.1c-0.1,0-0.1,0-0.1,0.1c0,0.3-0.1,0.6-0.1,0.8c0,0.1,0,0.1,0.1,0.1c0.4,0,0.8,0,1.2,0.1
		c0.2,0.1,0.4,0.1,0.6,0.2c-0.3-1.5,0.7-2.9,2.2-3c0.6,0,1.2,0.2,1.6,0.6C12,10.6,12.3,11.4,12.1,12.3z M15.1,7.7c0,0.2,0,0.4,0,0.6
		c0,0.3-0.1,0.6-0.3,0.9c-0.1,0.1-0.2,0.2-0.2,0.3c-0.1,0.1-0.1,0.2-0.1,0.4c0,0.2,0.1,0.3,0.3,0.3c0.2,0,0.3-0.1,0.3-0.3
		c0-0.1,0-0.2-0.1-0.2c-0.1,0-0.1,0-0.2,0c-0.1,0-0.1,0.1-0.1,0.2c0,0.1,0,0.1-0.1,0.1c0,0-0.1,0-0.1-0.1c0-0.1,0-0.2,0-0.3
		c0.1-0.1,0.2-0.2,0.4-0.1c0.2,0,0.3,0.2,0.3,0.3c0,0.2,0.1,0.3,0.1,0.5c0,0.1,0,0.3,0,0.4c0,0.3-0.2,0.5-0.3,0.8c0,0,0,0.1,0,0.1
		c0,0,0.1,0,0.1,0c0.6-0.4,0.9-1,0.9-1.7c0-0.6-0.2-1.1-0.5-1.6C15.4,8,15.3,7.8,15.1,7.7z M4.3,7.7C4.2,7.7,4.2,7.8,4.1,7.9
		c-0.5,0.6-0.7,1.2-0.7,2c0.1,0.6,0.4,1.1,0.9,1.5c0,0,0,0,0.1,0c0,0,0-0.1-0.1-0.1c-0.1-0.2-0.2-0.3-0.2-0.5
		c-0.1-0.2-0.1-0.5,0-0.7c0-0.1,0.1-0.3,0.1-0.4c0-0.1,0.1-0.2,0.2-0.3c0.1-0.1,0.3-0.1,0.4,0c0.1,0.1,0.1,0.2,0.1,0.3
		c0,0,0,0.1-0.1,0.1c0,0-0.1-0.1-0.1-0.1c0,0,0-0.1,0-0.1C4.6,9.5,4.5,9.5,4.5,9.6c-0.1,0-0.1,0.1-0.1,0.2c0,0.2,0.2,0.3,0.3,0.2
		C4.8,10,5,9.9,5,9.7c0-0.2-0.1-0.4-0.3-0.6C4.5,9,4.4,8.8,4.4,8.6C4.3,8.3,4.3,8,4.3,7.7z M9.8,7.1c0.4,0,0.8,0,1.2,0.1
		c1.5,0.4,2.6,1.3,3.2,2.8c0.3,0.6,0.4,1.2,0.4,1.9c0,0,0,0.1,0,0.1c0,0,0.1,0,0.1,0c0,0,0-0.1,0-0.1c0-0.3,0-0.6-0.1-0.9
		c-0.2-1.1-0.8-2.1-1.7-2.8c-1.2-1-2.6-1.4-4.1-1C7.6,7.3,6.6,7.9,5.9,8.9c-0.7,0.9-1,1.9-1,3c0,0.1,0,0.1,0.1,0.1
		c0.1,0,0-0.1,0-0.1c0-0.4,0-0.7,0.1-1.1C5.6,8.6,7.6,7.1,9.8,7.1z M10.1,13.6c0.2,0.2,0.5,0.2,0.7-0.1c0,0,0-0.1,0.1-0.1
		c0.2-0.3,0.4-0.5,0.7-0.7c0.1,0,0.1-0.1,0.1-0.2c0.3-0.8,0.1-1.6-0.5-2.2c-0.7-0.7-2-0.7-2.7,0c-0.5,0.5-0.7,1.1-0.6,1.8
		c0,0.3,0.1,0.5,0.3,0.7c0.2,0.2,0.4,0.4,0.6,0.7c0.2,0.3,0.4,0.3,0.7,0.1c-0.9-0.2-1.5-1.1-1.4-2C8.1,10.7,8.8,10,9.7,10
		c0.9,0,1.7,0.7,1.8,1.6C11.6,12.4,11.1,13.4,10.1,13.6z M9.8,7.4c-0.3,0-0.6,0-0.9,0.1c-0.1,0-0.1,0-0.1,0.1c0,0.1,0.1,0.3,0.1,0.5
		c0,0,0,0.1,0,0.1c-0.4,0.1-0.7,0.2-1,0.4c-0.1,0-0.1,0-0.1,0C7.7,8.4,7.6,8.2,7.5,8.1c0-0.1-0.1-0.1-0.1,0c-0.5,0.3-1,0.7-1.3,1.3
		c0,0,0,0.1,0,0.1c0.1,0.1,0.2,0.2,0.4,0.3c0,0,0.1,0,0,0.1c-0.2,0.3-0.4,0.7-0.5,1c0,0.1,0,0.1-0.1,0c-0.1,0-0.3,0-0.4-0.1
		c-0.1,0-0.1,0-0.1,0.1c-0.1,0.3-0.1,0.7-0.1,1c0,0,0,0.1,0,0.1c0.1,0,0-0.1,0-0.1c0-0.3,0-0.6,0.1-0.9c0-0.1,0-0.1,0.1-0.1
		c0.2,0,0.3,0,0.5,0.1c0.1,0,0.1,0,0.1-0.1c0.1-0.4,0.3-0.8,0.5-1.1c0,0,0-0.1,0-0.1C6.5,9.6,6.4,9.5,6.2,9.4c0,0,0-0.1,0-0.1
		c0.3-0.4,0.7-0.8,1.1-1.1c0,0,0.1,0,0.1,0c0.1,0.1,0.2,0.3,0.2,0.4c0,0,0,0.1,0.1,0C8.2,8.4,8.5,8.3,9,8.2c0,0,0.1,0,0-0.1
		C9,8,8.9,7.8,8.9,7.6c0-0.1,0-0.1,0-0.1c0.2,0,0.4-0.1,0.5-0.1c0.3,0,0.7,0,1,0.1c0.1,0,0.1,0,0.1,0.1c0,0.1-0.1,0.3-0.1,0.4
		c0,0.1,0,0.1,0.1,0.1c0.4,0.1,0.8,0.2,1.1,0.5c0,0,0.1,0,0.1,0c0.1-0.1,0.2-0.2,0.3-0.4c0-0.1,0.1-0.1,0.1,0
		c0.4,0.3,0.8,0.7,1.1,1.1c0,0.1,0,0.1,0,0.1c-0.1,0.1-0.2,0.2-0.4,0.3c0,0,0,0,0,0.1c0.2,0.4,0.4,0.8,0.5,1.2c0,0.1,0,0.1,0.1,0
		c0.1,0,0.3-0.1,0.4-0.1c0.1,0,0.1,0,0.1,0.1c0.1,0.3,0.1,0.6,0.1,0.9c0,0,0,0.1,0,0.1c0.1,0,0.1-0.1,0.1-0.1c0-0.4,0-0.7-0.1-1.1
		c0-0.1,0-0.1-0.1,0c-0.1,0-0.3,0-0.4,0.1c-0.1,0-0.1,0-0.1-0.1c-0.1-0.4-0.2-0.7-0.4-1c0,0,0-0.1,0-0.1c0.1-0.1,0.2-0.2,0.4-0.3
		c0,0,0.1-0.1,0-0.1c-0.4-0.5-0.8-0.9-1.3-1.3c0,0-0.1,0-0.1,0c-0.1,0.1-0.2,0.3-0.3,0.4c0,0-0.1,0.1-0.1,0c-0.3-0.2-0.7-0.3-1-0.4
		c0,0-0.1,0,0-0.1c0-0.1,0.1-0.3,0.1-0.4c0-0.1,0-0.1-0.1-0.1C10.4,7.4,10.1,7.4,9.8,7.4z M8.9,11.7c0,0,0.1,0,0.1,0.1
		c0.2,0.1,0.3,0.2,0.4,0.4c0.1,0.2,0.2,0.3,0.4,0.4c0,0,0.1,0,0.1,0c0.2-0.1,0.3-0.2,0.4-0.4c0-0.1,0.1-0.2,0.2-0.3
		c0.1,0,0.1-0.1,0.2-0.1c-0.1-0.1-0.3-0.1-0.5-0.1c0,0-0.1,0-0.1,0c-0.1-0.3-0.2-0.7-0.3-1c0,0,0-0.1,0-0.1c0,0,0,0,0,0.1
		c-0.1,0.3-0.2,0.6-0.3,1c0,0.1,0,0.1-0.1,0.1C9.2,11.6,9,11.6,8.9,11.7z M9.8,17.5c0.1-0.2,0.2-0.4,0.2-0.7c0,0,0-0.1,0-0.1
		c-0.1-0.2-0.1-0.3,0.1-0.4c0,0,0.1,0,0.1,0c0,0,0,0,0,0.1c0,0,0,0.1-0.1,0.1c0,0-0.1,0-0.1,0.1c0,0.1,0,0.1,0.1,0.1
		c0.1,0,0.1,0,0.2,0c0.2-0.1,0.2-0.4,0-0.5c-0.1,0-0.1-0.1,0-0.1c0.1-0.1,0-0.2-0.1-0.3c-0.2-0.2-0.2-0.2-0.5,0c0,0,0,0,0,0
		c-0.2,0.1-0.2,0.1-0.1,0.3c0,0.1,0,0.1,0,0.1c-0.1,0.1-0.2,0.3-0.1,0.4c0,0.1,0.1,0.1,0.2,0.1c0.1,0,0.1,0,0.1-0.1
		c0-0.1,0-0.1-0.1-0.1c-0.1,0-0.1,0-0.1-0.1c0,0,0-0.1,0.1,0c0.2,0,0.3,0.3,0.1,0.4c-0.1,0.1-0.1,0.2-0.1,0.3
		C9.6,17.1,9.6,17.3,9.8,17.5c-0.1-0.1-0.1-0.1-0.1-0.2c0-0.3,0-0.6,0-0.8c0,0,0-0.1,0-0.1c0.1,0,0,0.1,0,0.1c0,0.1,0,0.1,0,0.2
		C9.8,16.9,9.8,17.2,9.8,17.5z M9.7,13.2c0-0.1,0.1-0.2,0.1-0.2c0.1-0.3,0.4-0.4,0.6-0.6c0.1-0.1,0.2-0.1,0.4-0.2
		c0.1-0.1,0.2-0.3,0.2-0.5c-0.1,0.3-0.4,0.4-0.7,0.5c-0.2,0.1-0.4,0.2-0.6,0.4c0,0,0,0-0.1,0c-0.1-0.1-0.1-0.2-0.2-0.2
		c-0.1-0.1-0.3-0.2-0.4-0.2c-0.2-0.1-0.3-0.1-0.4-0.2c-0.1-0.1-0.1-0.1-0.2-0.2c0,0.2,0,0.3,0.1,0.4c0.1,0.1,0.3,0.2,0.4,0.3
		c0.2,0.1,0.4,0.2,0.5,0.3C9.6,12.9,9.7,13.1,9.7,13.2z M15.2,10c-0.2,0.2-0.4,0.3-0.6,0.1c0.2,0.4,0.3,0.9,0.3,1.3
		C15.2,10.9,15.4,10.4,15.2,10z M10.7,12.4c-0.1,0-0.1,0.1-0.1,0.2c0,0,0,0.1,0,0.1c0,0.1-0.1,0.2-0.2,0.2c-0.1,0-0.2,0-0.2-0.2
		c0-0.1,0-0.1-0.1,0c-0.2,0.1-0.3,0.3-0.3,0.4c0,0,0,0.1,0,0.1c0,0,0,0,0.1,0c0.1-0.1,0.1-0.2,0.2-0.3c0,0,0,0,0,0
		c0.1,0.1,0.2,0.2,0.3,0.1c0.1,0,0.2-0.2,0.2-0.3C10.7,12.6,10.7,12.5,10.7,12.4z M9.2,12.7C9.2,12.7,9.2,12.7,9.2,12.7
		c-0.1,0.2-0.1,0.2-0.2,0.2c-0.1,0-0.1-0.1-0.2-0.2c0-0.1,0-0.1,0-0.2c0-0.1,0-0.1-0.1-0.2c0,0.1,0,0.2,0,0.3c0,0.2,0.1,0.3,0.2,0.3
		c0.1,0,0.3,0,0.3-0.1c0,0,0.1,0,0.1,0c0.1,0.1,0.1,0.2,0.2,0.3c0,0,0,0.1,0.1,0c0,0,0,0,0-0.1C9.5,12.9,9.4,12.7,9.2,12.7z
		 M10,13.4c0.1-0.1,0.1-0.3,0.2-0.4c-0.1-0.1-0.2,0-0.2,0.1C10,13.2,10,13.3,10,13.4z M9.5,13.3c0-0.1,0-0.2,0-0.2
		c0-0.1-0.1-0.2-0.2-0.1C9.4,13.1,9.4,13.2,9.5,13.3z M10.9,13.8C10.9,13.8,10.9,13.8,10.9,13.8C10.9,13.8,10.9,13.8,10.9,13.8
		C10.9,13.8,10.9,13.8,10.9,13.8C10.9,13.8,10.9,13.8,10.9,13.8z"/>
	<path class="st1" d="M10.2,5.1c0.1,0,0.2,0,0.3,0C11.8,5.3,13,5.7,14,6.5c0.1,0.1,0.1,0.1,0,0.2C14,6.7,14,6.8,13.9,6.9
		c0,0,0,0.1,0,0.1c0,0,0,0,0,0c0.1,0,0.1,0.1,0.2,0.1c0.1,0,0.1-0.1,0.2-0.1c0,0,0,0,0.1,0c0.2,0.2,0.4,0.4,0.6,0.6c0,0,0,0.1,0,0.1
		c-0.3,0.3-0.7,0.6-1,0.9c0,0-0.1,0-0.1,0c-0.4-0.4-0.8-0.7-1.3-1c-0.1,0-0.1-0.1,0-0.1c0-0.1,0.1-0.1,0.1-0.2c0,0,0-0.1,0-0.1
		c-0.5-0.3-1-0.4-1.6-0.6c-0.5-0.1-1-0.1-1.6-0.1c-0.9,0-1.8,0.3-2.7,0.7c-0.1,0-0.1,0.1,0,0.1c0,0,0,0,0,0.1c0,0.1,0.1,0.1,0.1,0.2
		c0,0.1-0.1,0.1-0.2,0.1c-0.4,0.3-0.8,0.6-1.1,1c0,0-0.1,0-0.1,0C5.2,8.3,4.9,8,4.5,7.8c0,0-0.1-0.1,0-0.1C4.7,7.5,4.9,7.3,5,7.1
		c0,0,0.1,0,0.1,0c0.1,0,0.1,0.1,0.2,0.1c0.1,0,0.1-0.1,0.2-0.1C5.6,7,5.5,7,5.5,6.9C5.4,6.9,5.4,6.8,5.3,6.7c0,0,0-0.1,0-0.1
		c0.9-0.7,1.9-1.1,3-1.4C8.7,5.2,9,5.2,9.3,5.1c0,0,0,0,0,0C9.6,5.1,9.9,5.1,10.2,5.1z M5.5,6.7C5.6,6.9,5.8,7.1,6,7.4
		c0,0.1,0.1,0.1,0.1,0c0.1-0.1,0.2-0.2,0.3-0.2c1-0.6,2.1-0.9,3.3-1c0.3,0,0.5,0,0.8,0.1c0.6,0.1,1.1,0.2,1.7,0.4
		c0.4,0.2,0.8,0.4,1.1,0.6c0,0,0.1,0,0.1,0c0.1-0.2,0.2-0.4,0.4-0.5c0.1-0.2,0.1-0.2-0.1-0.3c-1-0.7-2.1-1.1-3.3-1.2
		c-0.7-0.1-1.4,0-2,0.1C7.3,5.6,6.3,6,5.5,6.7z M14.8,7.6C14.8,7.5,14.8,7.5,14.8,7.6c-0.2-0.2-0.3-0.3-0.4-0.4c0,0-0.1,0-0.1,0
		c-0.2,0.2-0.4,0.4-0.5,0.6c0,0,0,0.1,0,0.1C13.9,7.9,14,8,14.1,8.1c0,0,0.1,0,0.1,0C14.3,7.9,14.5,7.8,14.8,7.6
		C14.7,7.6,14.8,7.6,14.8,7.6z M5.7,7.9C5.7,7.9,5.7,7.9,5.7,7.9C5.5,7.7,5.3,7.5,5.1,7.3c0,0-0.1,0-0.1,0C4.9,7.4,4.8,7.5,4.7,7.6
		c0,0,0,0.1,0,0.1c0.2,0.2,0.4,0.3,0.6,0.5c0,0,0.1,0,0.1,0C5.5,8.1,5.6,8,5.7,7.9C5.7,7.9,5.7,7.9,5.7,7.9z M6.6,7.5
		C6.6,7.5,6.6,7.5,6.6,7.5c-0.2,0-0.3,0-0.5,0c-0.1,0-0.2,0-0.3-0.1c0-0.1-0.1-0.1-0.1-0.1c-0.1-0.1-0.1-0.1-0.3,0
		c-0.1,0,0,0.1,0,0.1c0.1,0.2,0.3,0.3,0.4,0.5c0,0,0.1,0.1,0,0.1C5.7,8.1,5.6,8.2,5.5,8.3c0,0,0,0.1,0,0.1c0,0,0.1,0,0.1,0
		C5.8,8.2,6,8,6.2,7.9C6.3,7.8,6.5,7.6,6.6,7.5z M12.8,7.4c0.4,0.3,0.7,0.6,1.1,0.9c0,0,0.1,0,0.1,0c0,0,0,0,0-0.1
		c-0.1-0.1-0.2-0.2-0.4-0.3c0,0-0.1-0.1,0-0.1c0.1-0.1,0.2-0.3,0.3-0.4c0.1-0.1,0.1-0.1,0-0.3c0,0-0.1,0-0.1,0
		c-0.1,0.1-0.1,0.1-0.2,0.2c-0.1,0.1-0.2,0.1-0.3,0.1C13.1,7.4,13,7.4,12.8,7.4z"/>
	<path class="st1" d="M3.9,18.8C3.9,18.8,3.9,18.8,3.9,18.8c0.1-0.2,0.1-0.2,0-0.3c-0.3-0.3-0.6-0.6-0.9-0.8c0,0,0,0,0-0.1
		c0-0.1,0.1,0,0.1,0c0.4,0.1,0.7,0.1,1.1,0.2c0.1,0,0.1,0,0.1-0.1C4.2,17.3,4.1,17,4,16.7c0,0,0-0.1,0-0.1c0.1,0.1,0.3,0.3,0.4,0.4
		c0.3,0.3,0.7,0.6,1,0.8c0.1,0,0.1,0.1,0,0.1c0,0,0,0,0,0.1c0,0.1-0.1,0.1-0.1,0.2c0,0.1,0.1,0.1,0.2,0.1c0.1,0.1,0.1,0,0.2,0
		c0-0.1,0.1-0.1,0.1-0.2c0-0.1,0.1-0.1,0.1,0c0.4,0.2,0.8,0.4,1.2,0.5c0.5,0.2,1.1,0.3,1.6,0.4c0.5,0.1,0.9,0.1,1.4,0
		c0.9-0.1,1.8-0.3,2.6-0.6c0.2-0.1,0.5-0.2,0.7-0.3c0.1,0,0.1,0,0.1,0c0,0,0,0,0,0.1c0,0.1,0.1,0.2,0.1,0.2c0.1,0,0.2-0.1,0.2-0.1
		c0,0,0,0,0-0.1c0-0.1-0.1-0.1-0.1-0.2c0,0,0-0.1,0-0.1c0.3-0.2,0.6-0.5,0.9-0.8c0.2-0.2,0.3-0.3,0.5-0.5c0,0,0,0,0.1,0
		c0,0.4-0.2,0.8-0.2,1.2c0.4-0.1,0.8-0.2,1.2-0.2c0,0,0.1,0,0.1,0c0,0,0.1,0.1,0,0.1c-0.3,0.2-0.5,0.4-0.8,0.7
		c-0.1,0.1-0.2,0.2-0.3,0.2c0,0-0.1,0.1,0,0.1c0.1,0.1,0.1,0.1,0,0.3c-0.5,0.4-1,0.7-1.6,0.9c-0.1,0-0.1,0-0.1-0.1
		c0-0.1-0.1-0.1-0.2-0.1c-0.7,0.4-1.5,0.6-2.3,0.7c-0.6,0.1-1.3,0.1-1.9,0.1c-0.9,0-1.8-0.2-2.7-0.5c-0.2-0.1-0.4-0.2-0.7-0.3
		c-0.1,0-0.1,0-0.1,0c-0.1,0.1-0.1,0.1-0.2,0.1C5,19.6,4.4,19.2,3.9,18.8z M9.7,20.4c0.6,0,1.2,0,1.7-0.1c0.9-0.2,1.8-0.5,2.6-1
		c0.1,0,0.1-0.1,0-0.1c-0.2-0.3-0.4-0.6-0.5-0.9c0-0.1-0.1-0.1-0.1,0c-1,0.6-2.1,0.9-3.2,0.9c-0.5,0-1,0-1.6-0.1
		C7.7,19,6.8,18.7,6,18.3c-0.1,0-0.1,0-0.1,0c-0.2,0.3-0.3,0.6-0.5,0.9c0,0.1,0,0.1,0,0.1c0.3,0.2,0.6,0.3,0.9,0.4
		c0.7,0.3,1.4,0.5,2.2,0.6C8.9,20.4,9.3,20.4,9.7,20.4z M5.4,17.9c-0.4-0.3-0.8-0.7-1.2-1c0,0,0,0.1,0,0.1c0.1,0.3,0.2,0.6,0.2,0.9
		c0,0.1,0,0.1-0.1,0.1c-0.1,0-0.2,0-0.2-0.1c-0.3-0.1-0.5-0.1-0.8-0.2c0,0,0,0.1,0.1,0.1c0.4,0.4,0.8,0.7,1.2,1c0.1,0,0.1,0,0.1,0
		C4.9,18.5,5.1,18.2,5.4,17.9z M16.1,17.7C16,17.7,16,17.7,16.1,17.7c-0.4,0.1-0.7,0.2-1,0.2c-0.1,0-0.1,0-0.1-0.1
		c0.1-0.3,0.2-0.6,0.2-0.9c0,0,0,0,0-0.1c0,0,0,0-0.1,0c-0.3,0.3-0.7,0.6-1,0.9c-0.1,0.1,0,0.1,0,0.1c0.2,0.3,0.4,0.5,0.6,0.8
		c0.1,0.1,0.1,0.1,0.2,0c0.3-0.2,0.6-0.4,0.9-0.7C15.8,18,16,17.9,16.1,17.7z M5.2,19.5C5.3,19.5,5.3,19.5,5.2,19.5
		c0-0.1-0.1-0.1-0.1-0.2c-0.1,0-0.1-0.1,0-0.2c0.1-0.2,0.2-0.3,0.3-0.5c0.1-0.2,0.1-0.2-0.1-0.3c-0.1,0-0.1,0-0.1,0
		c-0.2,0.2-0.3,0.4-0.5,0.6c0,0.1-0.1,0.1-0.2,0c-0.1,0-0.2-0.1-0.2-0.1C4.6,19.1,4.9,19.3,5.2,19.5z M15,19C15,19,15,18.9,15,19
		c-0.1,0-0.2,0-0.3,0.1c-0.1,0-0.1,0-0.1,0c-0.1-0.2-0.2-0.3-0.4-0.5c-0.2-0.2-0.2-0.2-0.4-0.1c-0.1,0-0.1,0.1,0,0.1
		c0.1,0.2,0.3,0.4,0.4,0.6c0,0.1,0,0.1,0,0.1c-0.1,0.1-0.1,0.1-0.2,0.2c0,0,0,0,0,0C14.4,19.3,14.7,19.1,15,19z"/>
	<path class="st1" d="M9.8,18.8c-0.4,0-0.8-0.1-1.2-0.1c-0.4-0.1-0.8-0.1-1.2-0.2c0,0,0,0-0.1,0c0,0,0,0,0,0c0,0,0,0,0,0
		c0.1,0,0.2,0,0.3,0c0,0,0.1,0,0.1-0.1c0-0.1,0-0.2,0-0.3c0-0.1,0-0.1,0.1-0.1c0.2,0,0.4,0,0.6,0c0.1,0,0.1,0,0.1,0.1
		c0,0.1,0,0.1,0.1,0.1c0.1,0,0.2,0,0.3,0c0,0,0.1,0,0.1-0.1C9,18,9,18,9.1,18c0.2-0.1,0.4-0.1,0.5-0.1c0.2,0,0.3,0,0.5,0
		c0.1,0,0.2,0,0.3,0.1c0.1,0,0.1,0.1,0.1,0.1c0,0,0,0,0.1,0c0.1,0,0.3,0,0.4,0c0.1,0,0.1,0,0.1-0.1c0-0.1,0-0.1,0.1-0.1
		c0.2,0,0.4,0,0.6,0c0.1,0,0.1,0,0.1,0.1c0,0.1,0,0.2,0,0.3c0,0,0,0.1,0.1,0.1c0.1,0,0.2,0,0.3,0c0,0,0.1,0,0.1,0c0,0,0,0-0.1,0
		c-0.2,0-0.4,0.1-0.5,0.1c-0.5,0.1-0.9,0.2-1.4,0.2C10,18.8,9.9,18.8,9.8,18.8z M8.3,18.5c0.1,0.1,0.3,0.1,0.4,0.1
		c0.3,0.1,0.6,0.1,0.9,0.1c0,0,0.1,0,0.1,0c0,0,0-0.1,0-0.2c0,0-0.1,0-0.1,0C9.2,18.5,8.8,18.5,8.3,18.5z M11.1,18.5
		C11.1,18.5,11.1,18.5,11.1,18.5c-0.4,0-0.8,0-1.2,0c-0.1,0-0.1,0-0.1,0.1c0,0.1,0,0.1,0.1,0.1c0.3,0,0.5,0,0.8-0.1
		C10.8,18.6,11,18.6,11.1,18.5z M9.4,18.2c0.1,0,0.2,0,0.2,0c0.1,0,0.1,0,0.1-0.1c0-0.1,0-0.1-0.1-0.1c-0.1,0-0.2,0-0.3,0
		c-0.1,0-0.2,0-0.3,0.1c0,0,0,0.1,0,0.1c0,0.1,0,0,0.1,0C9.2,18.2,9.3,18.2,9.4,18.2z M10.1,18.2c0.1,0,0.1,0,0.2,0c0,0,0.1,0,0.1,0
		c0,0,0-0.1-0.1-0.1C10.2,18,10,18,9.8,18c0,0,0,0,0,0.1c0,0.1,0,0.1,0.1,0.1C10,18.2,10,18.2,10.1,18.2z M8,18.2c0.1,0,0.2,0,0.2,0
		c0,0,0.1,0,0.1,0c0-0.1,0-0.1-0.1-0.1c-0.2,0-0.3,0-0.5,0c0,0-0.1,0-0.1,0c0,0,0,0.1,0.1,0.1C7.9,18.2,8,18.2,8,18.2z M11.4,18.2
		c0.1,0,0.2,0,0.2,0c0,0,0.1,0,0.1-0.1c0,0,0,0-0.1,0c-0.2,0-0.3,0-0.5,0c0,0-0.1,0-0.1,0c0,0,0,0.1,0.1,0.1
		C11.2,18.2,11.3,18.2,11.4,18.2z M8.3,18.4c0,0,0.1,0,0.1,0c0,0,0.1,0,0.1-0.1c0-0.1,0-0.1-0.1-0.1c-0.1,0-0.2,0-0.3,0
		c-0.1,0-0.1,0-0.1,0.1c0,0.1,0,0.1,0.1,0.1C8.2,18.4,8.3,18.4,8.3,18.4z M11.1,18.4c0,0,0.1,0,0.1,0c0.1,0,0.1,0,0.1-0.1
		c0,0,0-0.1-0.1-0.1c-0.1,0-0.2,0-0.2,0c0,0-0.1,0-0.1,0.1c0,0.1,0,0.1,0.1,0.1C11,18.4,11.1,18.4,11.1,18.4z M9.2,18.4
		C9.2,18.4,9.3,18.4,9.2,18.4c0.1,0,0.2,0,0.2-0.1c0-0.1,0-0.1-0.1-0.1c-0.1,0-0.1,0-0.2,0c-0.1,0-0.1,0-0.1,0.1c0,0,0,0.1,0.1,0.1
		C9.1,18.4,9.2,18.4,9.2,18.4z M10.3,18.3C10.2,18.3,10.2,18.3,10.3,18.3c-0.1,0-0.2,0-0.2,0.1c0,0.1,0,0.1,0.1,0.1
		c0.1,0,0.1,0,0.2,0c0.1,0,0.1,0,0.1-0.1C10.4,18.3,10.4,18.3,10.3,18.3C10.3,18.3,10.3,18.3,10.3,18.3z M11.5,18.4
		C11.6,18.4,11.6,18.4,11.5,18.4c0.1,0,0.1,0,0.1-0.1c0-0.1,0-0.1-0.1-0.1c0,0-0.1,0-0.1,0c-0.1,0-0.1,0-0.1,0.1
		C11.4,18.4,11.4,18.4,11.5,18.4C11.5,18.4,11.5,18.4,11.5,18.4z M7.9,18.4C7.9,18.4,8,18.4,7.9,18.4c0.1,0,0.1,0,0.1-0.1
		c0,0,0-0.1-0.1-0.1c-0.1,0-0.1,0-0.2,0c0,0,0,0-0.1,0C7.7,18.5,7.8,18.4,7.9,18.4z M8.8,18.4C8.8,18.4,8.8,18.4,8.8,18.4
		c0.1,0,0.2,0,0.2-0.1c0-0.1-0.1-0.1-0.1-0.1c0,0-0.1,0-0.1,0c0,0-0.1,0-0.1,0.1C8.6,18.5,8.7,18.4,8.8,18.4z M10.7,18.4
		C10.7,18.4,10.7,18.4,10.7,18.4c0.1,0,0.1,0,0.1-0.1c0,0,0-0.1,0-0.1c-0.1,0-0.1,0-0.2,0c0,0,0,0,0,0
		C10.5,18.5,10.6,18.4,10.7,18.4z M9.6,18.3c-0.1,0-0.1,0-0.1,0.1c0,0.1,0.1,0.1,0.1,0.1c0,0,0.1,0,0.1-0.1
		C9.7,18.2,9.6,18.3,9.6,18.3z M9.9,18.3c0,0-0.1,0-0.1,0.1c0,0.1,0.1,0.1,0.1,0.1c0,0,0.1,0,0.1-0.1C10,18.3,10,18.3,9.9,18.3z"/>
	<path class="st1" d="M8.1,13.4c-0.1,0-0.2-0.1-0.3-0.1c-0.4-0.1-0.7,0.1-1,0.2c-0.2,0.1-0.4,0.3-0.6,0.5c-0.3,0.3-0.7,0.5-1.1,0.5
		c-0.7,0.1-1.3-0.1-1.8-0.5c-0.3-0.3-0.5-0.6-0.6-1.1c0-0.1,0-0.2,0-0.4c0,0,0-0.1,0-0.1c0,0,0,0,0,0c0.2,0.5,0.7,0.8,1.2,0.9
		c0.7,0.2,1.4,0.1,2.1-0.3c0.3-0.2,0.6-0.3,1-0.3C7.4,12.9,7.8,13.1,8.1,13.4z M7.6,13.2C7.6,13.2,7.6,13.2,7.6,13.2
		c-0.4-0.2-0.8-0.2-1.2,0c-0.2,0.1-0.4,0.2-0.6,0.3c-0.6,0.3-1.2,0.3-1.9,0.2C3.4,13.6,3,13.4,2.8,13c0,0,0,0,0,0c0,0,0,0,0,0.1
		c0.1,0.5,0.3,0.8,0.7,1.1c0.3,0.2,0.7,0.4,1.1,0.4c0.4,0,0.8,0,1.2-0.2c0.2-0.1,0.4-0.3,0.5-0.5C6.7,13.5,7.1,13.2,7.6,13.2z"/>
	<path class="st1" d="M11.4,13.4c0.3-0.3,0.7-0.5,1.2-0.5c0.3,0,0.6,0.1,0.9,0.3c0.4,0.2,0.8,0.4,1.2,0.4c0.5,0,1,0,1.4-0.3
		c0.3-0.2,0.5-0.4,0.7-0.7c0,0,0-0.1,0.1,0c0,0,0,0,0,0.1c0,0.8-0.4,1.4-1.1,1.7c-0.4,0.2-0.8,0.3-1.3,0.3c-0.4,0-0.8-0.2-1.2-0.5
		c-0.3-0.3-0.6-0.6-1-0.7C12,13.3,11.7,13.3,11.4,13.4C11.4,13.4,11.4,13.4,11.4,13.4z M16.8,12.9C16.7,12.9,16.7,12.9,16.8,12.9
		c-0.3,0.4-0.6,0.6-1,0.7c-0.4,0.1-0.7,0.1-1.1,0.1c-0.4,0-0.8-0.2-1.2-0.4c-0.3-0.2-0.7-0.3-1.1-0.3c-0.2,0-0.3,0.1-0.5,0.2
		c0.2,0,0.4,0,0.6,0.1c0.4,0.1,0.7,0.4,0.9,0.6c0.4,0.4,0.8,0.6,1.4,0.6c0.4,0,0.7-0.1,1.1-0.3C16.3,13.9,16.7,13.5,16.8,12.9z"/>
	<path class="st1" d="M11.3,14c0.3-0.3,0.8-0.3,0.9,0.1c0.1,0.1,0.1,0.2,0.1,0.4c0.1,0.5,0.3,0.9,0.7,1.2c0.3,0.2,0.6,0.3,0.9,0.4
		c0.5,0.1,1-0.1,1.5-0.3c0,0,0,0,0,0c0,0,0,0,0,0c0,0,0,0.1,0,0.1c-0.2,0.3-0.5,0.5-0.8,0.7c-0.3,0.2-0.6,0.3-0.9,0.3
		c-0.4,0-0.8-0.1-1.1-0.2c-0.4-0.2-0.6-0.6-0.7-1c0-0.3-0.1-0.5,0-0.8c0-0.1,0-0.3,0-0.4C11.8,14.1,11.7,14,11.3,14
		C11.4,14,11.3,14,11.3,14z M11.7,13.9c0.3,0.2,0.4,0.5,0.3,0.8c0,0.3,0,0.5,0,0.8c0.1,0.3,0.2,0.6,0.4,0.8c0.3,0.3,0.8,0.4,1.2,0.4
		c0.4,0,0.8-0.1,1.1-0.3c0.2-0.1,0.3-0.2,0.4-0.4c-0.1,0-0.1,0-0.1,0c-0.3,0.1-0.6,0.1-1,0.1c-0.7,0-1.2-0.4-1.6-0.9
		c-0.2-0.3-0.3-0.6-0.4-1C12.1,14.1,11.9,13.9,11.7,13.9z"/>
	<path class="st1" d="M3.9,15.7c0.3,0.2,0.6,0.3,1,0.3c0.9,0.2,1.7-0.2,2.1-1.1c0.1-0.2,0.2-0.5,0.2-0.7c0.1-0.3,0.4-0.5,0.6-0.4
		c0.1,0,0.2,0.1,0.4,0.2c0,0-0.1,0-0.1,0c-0.3,0-0.5,0.1-0.5,0.4c0,0.2,0,0.3,0,0.5c0,0.3,0,0.7-0.1,1c-0.1,0.4-0.4,0.6-0.7,0.8
		c-0.3,0.2-0.7,0.2-1,0.2c-0.5,0-1-0.2-1.3-0.6C4.2,16.1,4.1,16,4,15.9C4,15.8,3.9,15.8,3.9,15.7z M4.3,16.1
		C4.3,16.1,4.3,16.1,4.3,16.1c0.4,0.4,0.8,0.6,1.4,0.7c0.3,0,0.5-0.1,0.8-0.1c0.4-0.1,0.7-0.3,0.8-0.7c0.1-0.3,0.2-0.7,0.1-1
		c0-0.4,0-0.7,0.3-0.9c-0.2,0-0.4,0.1-0.5,0.4c0,0.1-0.1,0.3-0.1,0.4c-0.1,0.5-0.4,0.9-0.8,1.2c-0.5,0.3-1,0.4-1.5,0.3
		C4.7,16.2,4.5,16.1,4.3,16.1z"/>
	<path class="st1" d="M10,17.8c-0.1-0.2-0.1-0.3,0-0.5c0-0.1,0.1-0.2,0.1-0.3c0.1-0.4,0.4-0.4,0.7-0.3c0,0,0,0,0.1,0.1
		c0.1,0.2,0.3,0.4,0.4,0.6c0,0,0,0.1,0,0.1c0,0,0,0-0.1,0c0,0.1-0.1,0.1-0.2,0c-0.2-0.1-0.5-0.2-0.7-0.1
		C10.2,17.6,10.1,17.7,10,17.8z M10,17.4c0.3-0.2,0.7-0.2,1.1,0c-0.1-0.2-0.2-0.3-0.3-0.4c-0.1-0.1-0.2-0.2-0.3-0.1
		c-0.2,0-0.3,0-0.4,0.2C10.1,17.1,10.1,17.2,10,17.4C10,17.4,10,17.4,10,17.4C10,17.4,10,17.4,10,17.4z M10,17.7
		c0,0,0.1-0.1,0.1-0.1c0.2-0.1,0.4-0.2,0.6-0.2c0.1,0,0.3,0.1,0.4,0.1c0,0,0,0,0.1,0c0,0,0,0,0-0.1c-0.4-0.2-0.7-0.2-1.1,0
		C10,17.6,10,17.6,10,17.7z"/>
	<path class="st1" d="M9.5,17.8C9.5,17.8,9.5,17.8,9.5,17.8c-0.4-0.4-0.7-0.4-1.1-0.2c0,0-0.1,0.1-0.1,0c-0.1,0-0.1-0.1-0.1-0.1
		c0,0,0,0,0-0.1c0.1-0.2,0.3-0.4,0.4-0.6c0.1-0.1,0.2-0.1,0.3-0.1c0.2,0,0.4,0.1,0.4,0.3c0.1,0.2,0.1,0.3,0.2,0.5
		C9.6,17.6,9.5,17.7,9.5,17.8z M8.4,17.3C8.4,17.3,8.4,17.4,8.4,17.3c0.4-0.2,0.7-0.1,1.1,0.1c0-0.1,0-0.2-0.1-0.2
		c-0.2-0.3-0.3-0.4-0.6-0.4c0,0,0,0-0.1,0C8.6,17,8.5,17.2,8.4,17.3z M9.5,17.7c0.1-0.1,0-0.1-0.1-0.2c-0.3-0.2-0.7-0.2-1,0
		c0,0-0.1,0-0.1,0.1c0,0.1,0.1,0,0.1,0c0.3-0.1,0.5-0.1,0.8,0C9.3,17.6,9.4,17.6,9.5,17.7z"/>
	<path class="st0" d="M8.9,14.2c-0.1-0.3-0.3-0.5-0.5-0.8c-0.2-0.2-0.4-0.4-0.6-0.5c-0.4-0.2-0.9-0.3-1.3-0.1
		c-0.3,0.1-0.5,0.2-0.8,0.3c-0.4,0.2-0.8,0.3-1.2,0.2c-0.5,0-0.9-0.2-1.2-0.5c-0.2-0.2-0.4-0.5-0.4-0.9c-0.1-0.3-0.1-0.6-0.1-0.9
		c0-0.5,0.1-1,0.2-1.5c0,0,0-0.1,0.1-0.1c0,0,0,0.1,0,0.1c0,0.4,0.1,0.9,0.3,1.2c0.3,0.6,0.8,1.1,1.5,1.3c0.1,0,0.3,0.1,0.4,0.1
		c0.3,0,0.5,0,0.8,0c0.6,0,1.1,0.1,1.6,0.4c0.3,0.2,0.6,0.4,0.9,0.7c0.1,0.2,0.2,0.3,0.4,0.5c0.3,0.2,0.5,0.1,0.7-0.1c0,0,0,0,0,0
		c0,0,0-0.1,0.1-0.1c0.1,0,0,0.1,0,0.1c0,0,0,0.1,0.1,0.1c0-0.1,0.1-0.1,0.1-0.2c0,0,0,0,0-0.1c0,0,0,0,0.1,0
		c0.1,0.1,0.1,0.2,0.2,0.2c0.2,0.2,0.4,0.1,0.6-0.1c0.1-0.1,0.2-0.2,0.3-0.3c0.4-0.5,0.8-0.8,1.4-1c0.3-0.1,0.6-0.1,0.9-0.1
		c0.4,0,0.7,0,1.1,0c0.3,0,0.6-0.2,0.9-0.3c0.6-0.4,1-1,1.1-1.8c0-0.2,0-0.3,0-0.5c0,0,0-0.1,0-0.1c0,0,0,0,0.1,0.1
		c0.1,0.2,0.1,0.4,0.2,0.7c0.1,0.4,0.1,0.8,0.1,1.1c0,0.3-0.1,0.7-0.2,1c-0.2,0.5-0.7,0.9-1.2,1c-0.6,0.1-1.2,0-1.7-0.3
		c-0.3-0.1-0.5-0.3-0.8-0.3c-0.4-0.1-0.8,0-1.2,0.2c-0.4,0.2-0.6,0.6-0.9,0.9c-0.1,0.1-0.1,0.2-0.2,0.4c0,0,0.1-0.1,0.1-0.1
		c0.2-0.2,0.4-0.5,0.7-0.6c0.4-0.2,0.8-0.1,1.1,0.1c0.2,0.1,0.3,0.3,0.5,0.5c0.4,0.3,0.8,0.6,1.3,0.7c0.5,0.1,0.9,0,1.3-0.2
		c0.2-0.1,0.4-0.2,0.6-0.3c0,0,0.1,0,0.1,0c0,0,0,0.1,0,0.1c-0.2,0.3-0.3,0.6-0.6,0.8c-0.3,0.3-0.7,0.5-1.1,0.5c-0.2,0-0.3,0-0.5,0
		c-0.6,0-1-0.2-1.2-0.7c-0.1-0.2-0.2-0.5-0.3-0.8c-0.1-0.2-0.1-0.3-0.2-0.5c-0.2-0.3-0.5-0.3-0.8-0.2c-0.4,0.2-0.7,0.5-0.9,0.9
		c0.1-0.1,0.2-0.2,0.3-0.2c0.2-0.1,0.3-0.2,0.5-0.2c0.2,0,0.3,0.1,0.3,0.3c0,0.2,0,0.3,0,0.5c0,0.5,0,1,0.3,1.5
		c0.2,0.2,0.4,0.4,0.7,0.5c0.4,0.2,0.8,0.2,1.3,0.2c0,0,0.1,0,0.1,0c0,0,0,0.1-0.1,0.1c-0.4,0.3-0.8,0.5-1.2,0.5
		c-0.5,0-0.9-0.2-1.3-0.5c-0.3-0.3-0.4-0.6-0.4-1c0-0.5,0.1-0.9,0.4-1.3c0-0.1,0.1-0.2,0.1-0.3c0-0.1-0.1-0.2-0.2-0.2
		c-0.1,0-0.3,0.1-0.4,0.2c-0.2,0.2-0.4,0.4-0.6,0.7c-0.1,0.2-0.1,0.3,0,0.3c0,0,0,0,0,0c0,0,0-0.1,0.1-0.1c0.1,0,0.1,0,0.1,0.1
		c0,0.1,0,0.2-0.1,0.2c-0.1,0-0.2,0-0.3-0.1c-0.2-0.1-0.3-0.2-0.5-0.3c-0.1,0-0.1,0-0.2,0c-0.1,0.1-0.3,0.2-0.4,0.3
		c-0.1,0.1-0.2,0.1-0.3,0.1c-0.1,0-0.1-0.1-0.1-0.2c0-0.1,0-0.1,0.1-0.1c0,0,0.1,0,0.1,0.1c0,0.1,0.1,0.1,0.1,0c0.1-0.1,0-0.1,0-0.2
		C9,15.2,8.9,15.1,8.8,15c-0.1-0.2-0.3-0.3-0.5-0.4c-0.1,0-0.2-0.1-0.2-0.1c-0.1,0-0.2,0.1-0.2,0.2c0,0.1,0,0.2,0.1,0.3
		c0.1,0.3,0.3,0.5,0.3,0.8c0.1,0.7,0,1.2-0.5,1.6c-0.7,0.6-1.6,0.5-2.2,0c-0.1,0-0.1-0.1-0.2-0.1c0,0,0,0,0-0.1c0,0,0,0,0.1,0
		c0.3,0,0.6,0,0.9-0.1c0.4-0.1,0.8-0.2,1.1-0.6c0.2-0.2,0.3-0.5,0.3-0.8c0-0.3,0-0.6,0-0.9c0-0.1,0-0.2,0-0.4
		c0.1-0.3,0.2-0.3,0.4-0.2c0.2,0,0.4,0.2,0.5,0.3c0,0,0.1,0.1,0.1,0.1c-0.1-0.3-0.3-0.5-0.5-0.7c-0.1-0.1-0.3-0.2-0.5-0.3
		c-0.3-0.1-0.6,0-0.8,0.2c-0.1,0.2-0.2,0.4-0.2,0.5c-0.1,0.3-0.3,0.7-0.5,1c-0.2,0.2-0.5,0.3-0.8,0.4c-0.5,0.1-1,0-1.4-0.2
		c-0.3-0.2-0.6-0.4-0.8-0.7c-0.1-0.2-0.2-0.3-0.3-0.5c0.1,0,0.1,0,0.2,0.1c0.4,0.3,0.8,0.5,1.3,0.5c0.6,0,1.1-0.2,1.6-0.5
		c0.2-0.1,0.3-0.3,0.5-0.4c0.3-0.3,0.6-0.5,1-0.5c0.3,0,0.5,0.1,0.7,0.3C8.5,13.9,8.6,14,8.9,14.2C8.8,14.2,8.8,14.2,8.9,14.2
		C8.9,14.3,8.9,14.3,8.9,14.2C8.9,14.3,8.9,14.3,8.9,14.2z M10,14.9C10.1,14.9,10.1,14.9,10,14.9c0-0.3,0.1-0.4,0.2-0.6
		c0,0,0-0.1,0-0.1c-0.2,0-0.4-0.1-0.4-0.3c0,0,0-0.1,0-0.1c0,0,0,0,0,0.1c-0.1,0.2-0.2,0.3-0.5,0.3c0,0,0,0,0,0c0,0,0,0,0,0.1
		c0.1,0.1,0.2,0.3,0.2,0.5c0,0.1,0,0.1,0.1,0.1c0.1,0,0.2,0,0.3,0C9.9,14.8,10,14.8,10,14.9z"/>
	<path class="st2" d="M12.1,12.3c0.2-0.9-0.1-1.7-0.8-2.4c-0.5-0.4-1-0.6-1.6-0.6c-1.5,0.1-2.6,1.5-2.2,3c-0.2-0.1-0.4-0.2-0.6-0.2
		C6.4,12,6,12,5.6,12c-0.1,0-0.1,0-0.1-0.1c0-0.3,0-0.6,0.1-0.8c0-0.1,0-0.1,0.1-0.1c0.2,0,0.3,0,0.5,0.1c0.1,0,0.1,0,0.1-0.1
		c0.1-0.5,0.3-0.9,0.6-1.3c0,0,0-0.1,0-0.1C6.6,9.6,6.5,9.5,6.4,9.4c0,0,0-0.1,0-0.1c0.3-0.4,0.6-0.7,1-0.9c0.1,0,0.1,0,0.1,0
		c0.1,0.1,0.2,0.3,0.3,0.4c0,0,0,0.1,0.1,0c0.4-0.2,0.8-0.4,1.3-0.5c0.1,0,0.1,0,0.1-0.1C9.1,8,9.1,7.9,9,7.7c0-0.1,0-0.1,0.1-0.1
		c0.4-0.1,0.9-0.1,1.3,0c0.1,0,0.1,0,0.1,0.1c0,0.2-0.1,0.3-0.1,0.5c0,0.1,0,0.1,0,0.1c0.5,0.1,0.9,0.3,1.3,0.5c0,0,0.1,0,0.1,0
		c0.1-0.1,0.2-0.3,0.3-0.4c0,0,0.1-0.1,0.1,0c0.4,0.3,0.7,0.6,1,1c0,0,0,0.1,0,0.1c-0.1,0.1-0.2,0.2-0.4,0.3c0,0-0.1,0.1,0,0.1
		c0.3,0.4,0.4,0.8,0.6,1.3c0,0.1,0,0.1,0.1,0.1c0.1,0,0.3,0,0.4-0.1c0.1,0,0.1,0,0.1,0.1c0,0.3,0.1,0.5,0.1,0.8c0,0.1,0,0.1-0.1,0.1
		c-0.4,0-0.7,0-1.1,0.1C12.6,12.1,12.3,12.2,12.1,12.3z"/>
	<path class="st0" d="M15.1,7.7c0.2,0.1,0.3,0.3,0.4,0.5c0.3,0.5,0.5,1,0.5,1.6c0,0.7-0.3,1.3-0.9,1.7c0,0,0,0-0.1,0
		c0,0,0-0.1,0-0.1c0.1-0.3,0.3-0.5,0.3-0.8c0-0.1,0-0.3,0-0.4c0-0.2-0.1-0.3-0.1-0.5c0-0.2-0.1-0.3-0.3-0.3c-0.1,0-0.3,0-0.4,0.1
		c-0.1,0.1-0.1,0.2,0,0.3c0,0,0,0.1,0.1,0.1c0,0,0.1,0,0.1-0.1c0-0.1,0-0.1,0.1-0.2c0.1,0,0.1-0.1,0.2,0c0.1,0,0.1,0.1,0.1,0.2
		c0,0.2-0.1,0.3-0.3,0.3c-0.2,0-0.3-0.1-0.3-0.3c0-0.1,0-0.3,0.1-0.4c0.1-0.1,0.1-0.2,0.2-0.3c0.2-0.2,0.3-0.5,0.3-0.9
		C15.2,8.1,15.2,7.9,15.1,7.7z"/>
	<path class="st0" d="M4.3,7.7c0,0.3,0,0.7,0.1,1C4.4,8.8,4.5,9,4.7,9.1C4.8,9.3,5,9.5,5,9.7C5,9.9,4.8,10,4.7,10
		c-0.2,0-0.3-0.1-0.3-0.2c0-0.1,0-0.2,0.1-0.2c0.1,0,0.2,0,0.2,0.1c0,0,0.1,0.1,0,0.1c0,0.1,0,0.1,0.1,0.1c0,0,0.1,0,0.1-0.1
		c0-0.1,0-0.2-0.1-0.3c-0.1-0.1-0.3-0.1-0.4,0C4.3,9.5,4.2,9.6,4.2,9.7c0,0.1,0,0.3-0.1,0.4c-0.1,0.2,0,0.5,0,0.7
		c0.1,0.2,0.1,0.4,0.2,0.5c0,0,0,0.1,0.1,0.1c0,0-0.1,0-0.1,0c-0.5-0.4-0.9-0.9-0.9-1.5c-0.1-0.8,0.2-1.4,0.7-2
		C4.2,7.8,4.2,7.7,4.3,7.7z"/>
	<path class="st2" d="M9.8,7.1c-2.2,0-4.2,1.5-4.7,3.7C5,11.2,5,11.5,5,11.9c0,0,0,0.1,0,0.1c-0.1,0-0.1,0-0.1-0.1
		c0-1.1,0.3-2.1,1-3c0.7-1,1.7-1.6,2.9-1.8c1.5-0.3,2.9,0,4.1,1c0.9,0.7,1.4,1.7,1.7,2.8c0.1,0.3,0.1,0.6,0.1,0.9c0,0,0,0.1,0,0.1
		c0,0-0.1,0-0.1,0c0,0,0,0,0-0.1c0-0.7-0.1-1.3-0.4-1.9c-0.6-1.4-1.7-2.4-3.2-2.8C10.6,7.1,10.2,7.1,9.8,7.1z"/>
	<path class="st2" d="M10.1,13.6c1-0.2,1.6-1.1,1.5-2c-0.1-0.9-0.8-1.6-1.8-1.6c-0.9,0-1.6,0.7-1.7,1.6c-0.1,0.9,0.5,1.8,1.4,2
		c-0.2,0.2-0.5,0.2-0.7-0.1c-0.2-0.2-0.4-0.5-0.6-0.7c-0.2-0.2-0.3-0.4-0.3-0.7c-0.1-0.7,0.1-1.3,0.6-1.8c0.8-0.7,2-0.7,2.7,0
		c0.6,0.6,0.8,1.4,0.5,2.2c0,0.1-0.1,0.1-0.1,0.2c-0.3,0.2-0.5,0.5-0.7,0.7c0,0,0,0.1-0.1,0.1C10.5,13.7,10.3,13.8,10.1,13.6z"/>
	<path class="st0" d="M8.9,11.7c0.2-0.1,0.3-0.1,0.5-0.1c0.1,0,0.1,0,0.1-0.1c0.1-0.3,0.2-0.6,0.3-1c0,0,0-0.1,0-0.1c0,0,0,0,0,0.1
		c0.1,0.3,0.2,0.6,0.3,1c0,0.1,0,0.1,0.1,0c0.2,0,0.4,0,0.5,0.1c-0.1,0-0.1,0.1-0.2,0.1c-0.1,0.1-0.2,0.2-0.2,0.3
		c-0.1,0.2-0.2,0.3-0.4,0.4c0,0-0.1,0-0.1,0c-0.2-0.1-0.3-0.2-0.4-0.4c-0.1-0.2-0.2-0.3-0.4-0.4C8.9,11.7,8.9,11.7,8.9,11.7z
		 M9.8,11C9.7,11,9.7,11.1,9.8,11c-0.2,0.3-0.2,0.4-0.3,0.6c0,0,0,0.1,0,0.1c0,0,0,0,0-0.1c0.1-0.1,0.1-0.3,0.2-0.5
		c0.1,0.2,0.1,0.3,0.2,0.4c0,0,0,0.1,0,0.1c0,0,0,0,0-0.1C9.9,11.4,9.9,11.2,9.8,11z M9.7,11.6c0,0-0.1,0.1-0.1,0.1c0,0,0,0.1,0,0.1
		c0,0,0.1,0.1,0.1,0.1c0,0,0,0,0,0C9.9,11.9,9.9,11.8,9.7,11.6C9.8,11.7,9.8,11.7,9.7,11.6z"/>
	<path class="st0" d="M9.8,17.5c0-0.3,0-0.6,0-0.8c0-0.1,0-0.1,0-0.2c0,0,0-0.1,0-0.1c-0.1,0,0,0.1,0,0.1c0,0.3,0,0.6,0,0.8
		C9.7,17.3,9.7,17.4,9.8,17.5c-0.1-0.2-0.2-0.4-0.2-0.5c0-0.1,0-0.2,0.1-0.3c0.1-0.1,0-0.3-0.1-0.4c0,0-0.1,0-0.1,0
		c0,0,0,0.1,0.1,0.1c0.1,0,0.1,0.1,0.1,0.1c0,0.1,0,0.1-0.1,0.1c-0.1,0-0.1,0-0.2-0.1c-0.1-0.1,0-0.3,0.1-0.4c0.1,0,0.1-0.1,0-0.1
		c-0.1-0.2,0-0.2,0.1-0.3c0,0,0,0,0,0c0.2-0.2,0.2-0.1,0.5,0c0.2,0.1,0.2,0.2,0.1,0.3c0,0.1,0,0.1,0,0.1c0.2,0.1,0.2,0.4,0,0.5
		c-0.1,0-0.1,0-0.2,0c0,0-0.1-0.1-0.1-0.1c0-0.1,0.1-0.1,0.1-0.1c0,0,0,0,0.1-0.1c0,0,0-0.1,0-0.1c0,0-0.1,0-0.1,0
		c-0.2,0.1-0.2,0.3-0.1,0.4c0,0,0,0.1,0,0.1C9.9,17,9.9,17.2,9.8,17.5z"/>
	<path class="st0" d="M9.7,13.2c-0.1-0.2-0.1-0.3-0.2-0.5c-0.1-0.2-0.3-0.3-0.5-0.3c-0.2-0.1-0.3-0.1-0.4-0.3
		c-0.1-0.1-0.1-0.2-0.1-0.4c0.1,0.1,0.1,0.1,0.2,0.2c0.1,0.1,0.3,0.2,0.4,0.2c0.2,0.1,0.3,0.1,0.4,0.2c0.1,0.1,0.2,0.1,0.2,0.2
		c0,0,0,0.1,0.1,0c0.1-0.2,0.3-0.3,0.6-0.4c0.3-0.1,0.5-0.2,0.7-0.5c0,0.2,0,0.4-0.2,0.5c-0.1,0.1-0.2,0.1-0.4,0.2
		c-0.3,0.1-0.5,0.3-0.6,0.6C9.8,13.1,9.8,13.2,9.7,13.2z"/>
	<path class="st0" d="M10.7,12.4c0,0.1,0,0.2,0,0.3c0,0.2-0.1,0.3-0.2,0.3c-0.1,0-0.2,0-0.3-0.1c0,0,0,0,0,0C10,12.9,10,13,9.9,13.1
		c0,0,0,0.1-0.1,0c0,0,0,0,0-0.1c0.1-0.2,0.2-0.3,0.3-0.4c0,0,0.1,0,0.1,0c0,0.1,0.1,0.2,0.2,0.2c0.1,0,0.2-0.1,0.2-0.2
		c0,0,0-0.1,0-0.1C10.6,12.5,10.7,12.4,10.7,12.4z"/>
	<path class="st0" d="M9.2,12.7c0.2,0.1,0.3,0.2,0.4,0.4c0,0,0,0.1,0,0.1c0,0,0,0-0.1,0c0-0.1-0.1-0.2-0.2-0.3c0,0-0.1,0-0.1,0
		C9.2,13,9.1,13,9,13c-0.1,0-0.2-0.2-0.2-0.3c0-0.1,0-0.2,0-0.3c0.1,0,0.1,0.1,0.1,0.2c0,0.1,0,0.1,0,0.2c0,0.1,0.1,0.2,0.2,0.2
		C9.1,12.9,9.2,12.8,9.2,12.7C9.2,12.7,9.2,12.7,9.2,12.7z"/>
	<path class="st0" d="M10,13.4c0-0.1,0-0.2,0-0.3c0-0.1,0.1-0.2,0.2-0.1C10.1,13.1,10.1,13.2,10,13.4z"/>
	<path class="st0" d="M9.5,13.3c-0.1-0.1-0.1-0.3-0.2-0.3c0.1-0.1,0.2,0,0.2,0.1C9.5,13.2,9.5,13.3,9.5,13.3z"/>
	<path class="st2" d="M8.5,13.8C8.5,13.8,8.5,13.8,8.5,13.8C8.5,13.8,8.5,13.8,8.5,13.8C8.5,13.8,8.5,13.8,8.5,13.8
		C8.5,13.8,8.5,13.8,8.5,13.8z"/>
	<path class="st2" d="M11,13.8C10.9,13.8,10.9,13.8,11,13.8C10.9,13.8,10.9,13.8,11,13.8C10.9,13.8,11,13.8,11,13.8z"/>
	<path class="st2" d="M14.5,10C14.5,10,14.5,10,14.5,10C14.5,10,14.5,10,14.5,10z"/>
	<path class="st2" d="M8.5,13.8C8.5,13.8,8.6,13.8,8.5,13.8C8.5,13.8,8.5,13.8,8.5,13.8C8.5,13.8,8.5,13.8,8.5,13.8z"/>
	<path class="st2" d="M10.9,13.8C10.9,13.8,10.9,13.8,10.9,13.8C10.9,13.8,10.9,13.8,10.9,13.8C10.9,13.8,10.9,13.8,10.9,13.8
		C10.9,13.8,10.9,13.8,10.9,13.8z"/>
	<path class="st2" d="M14.5,10C14.5,10,14.5,10,14.5,10C14.5,10,14.5,10,14.5,10C14.5,10.1,14.5,10.1,14.5,10
		C14.5,10,14.5,10,14.5,10z"/>
	<path class="st0" d="M5.5,6.7C6.3,6,7.3,5.6,8.4,5.4c0.7-0.1,1.4-0.2,2-0.1c1.2,0.1,2.3,0.5,3.3,1.2c0.2,0.1,0.2,0.1,0.1,0.3
		c-0.1,0.2-0.3,0.3-0.4,0.5c0,0.1-0.1,0.1-0.1,0c-0.3-0.2-0.7-0.4-1.1-0.6c-0.5-0.2-1.1-0.4-1.7-0.4c-0.3,0-0.5-0.1-0.8-0.1
		c-1.2,0-2.3,0.3-3.3,1C6.3,7.2,6.2,7.3,6.1,7.4c-0.1,0-0.1,0-0.1,0C5.8,7.1,5.6,6.9,5.5,6.7z M11,5.8C11,5.9,11,6,11.1,6.1
		c0,0.1,0.1,0.1,0.1,0.1c0.1,0,0,0,0-0.1c0-0.1,0-0.2,0.1-0.3c0,0,0-0.1-0.1-0.1c-0.1,0-0.1,0-0.1,0.1c0,0,0,0.1,0,0.2
		c0-0.1-0.1-0.2-0.1-0.2c0-0.1-0.1-0.1-0.1-0.1c-0.1,0,0,0,0,0.1c0,0.1,0,0.2-0.1,0.3c0,0.1,0,0.1,0.1,0.1c0,0,0.1,0,0.1-0.1
		C10.9,6,11,5.9,11,5.8z M9.5,5.7C9.5,5.7,9.4,5.6,9.4,5.5c0-0.1-0.1-0.1-0.1,0c-0.1,0,0,0.1,0,0.1c0,0.1,0,0.2,0,0.3
		c0,0.1,0,0.1,0.1,0.1c0.1,0,0.1,0,0.1-0.1c0,0,0-0.1,0-0.1c0.1,0.1,0.1,0.1,0.1,0.2c0,0.1,0.1,0,0.1,0c0.1,0,0-0.1,0-0.1
		c0-0.1,0-0.2,0-0.3c0-0.1,0-0.1-0.1-0.1c-0.1,0-0.1,0-0.1,0.1C9.5,5.6,9.5,5.7,9.5,5.7z M13.3,6.5C13.3,6.5,13.2,6.5,13.3,6.5
		C13.1,6.4,13,6.3,13,6.3c0,0,0,0-0.1,0c-0.1,0.1-0.1,0.2-0.2,0.3c0,0,0,0,0,0.1c0.1,0,0.1,0,0.1,0c0,0,0-0.1,0.1,0
		c0,0,0.1,0,0.1,0.1c0,0,0,0,0,0.1c0,0.1,0,0.1,0.1,0.1c0,0,0.1,0,0.1,0C13.1,6.8,13.1,6.7,13.3,6.5C13.3,6.6,13.3,6.6,13.3,6.5z
		 M11.8,6.1c0,0.2,0.1,0.2,0.2,0.3c0,0,0.1,0,0.1,0c0.1,0.1,0.1,0,0.1,0c0,0,0,0,0-0.1c0-0.1,0-0.1-0.1-0.1c0,0,0,0-0.1,0
		c0,0,0,0-0.1,0c0,0,0,0,0,0.1c0,0,0,0,0,0c0,0,0,0,0,0c0,0-0.1,0-0.1-0.1c0-0.1,0-0.1,0.1-0.2c0,0,0.1,0,0.1,0c0,0,0,0,0,0
		c0,0.1,0.1,0.1,0.1,0.1c0,0,0-0.1,0-0.2c0,0,0,0,0,0c-0.1-0.1-0.2-0.1-0.3,0C11.8,6,11.8,6.1,11.8,6.1z M6.8,6.2
		c-0.1,0-0.3,0.1-0.3,0.2c0,0.1,0.1,0.3,0.3,0.3c0.1,0,0.3-0.1,0.3-0.2C7.1,6.3,6.9,6.2,6.8,6.2z M8.8,5.7C8.8,5.7,8.8,5.6,8.8,5.7
		c0-0.2-0.1-0.1-0.1-0.1c-0.1,0-0.1,0,0,0.1c0,0.1,0,0.2,0,0.3c0,0,0,0.1,0.1,0.1c0.1,0,0.1,0,0.1-0.1c0,0,0-0.1,0-0.1
		c0,0,0.1,0,0.1,0.1C9,6,9.1,6,9.2,6c0,0,0,0-0.1-0.1C9.1,5.8,9,5.8,9,5.7c0-0.1,0.1-0.1,0.1-0.2C9,5.5,8.9,5.6,8.8,5.7z M10.5,6
		c0-0.1-0.1-0.1-0.1-0.1c-0.1-0.2-0.1-0.2,0-0.3c0,0,0,0,0,0c-0.1-0.1-0.2,0-0.3,0.1c0,0,0-0.1,0-0.1c0-0.1,0-0.1-0.1-0.1
		c-0.1,0-0.1,0-0.1,0.1c0,0.1,0,0.2,0,0.3C10,6,10.1,6,10.1,6c0.1,0,0.1-0.1,0.1-0.1c0,0,0-0.1,0-0.1c0,0,0,0,0,0.1
		C10.3,6,10.4,6,10.5,6z M11.8,5.8C11.8,5.8,11.8,5.8,11.8,5.8c-0.1-0.1-0.2-0.1-0.3-0.1c-0.1,0-0.1,0-0.1,0c0,0.1-0.1,0.2-0.1,0.4
		c0,0,0,0.1,0,0.1c0.1,0,0.2,0.1,0.3,0.1c0,0,0.1,0,0.1,0c0-0.1,0-0.1-0.1-0.1c0,0-0.1,0-0.1,0c0,0,0,0,0,0c0,0,0,0,0,0
		c0,0,0.1,0,0.1,0c0,0,0.1,0,0.1,0c0,0,0-0.1,0-0.1c0,0-0.1,0-0.1,0c0,0,0,0,0,0c0,0,0,0,0,0C11.6,5.9,11.7,5.9,11.8,5.8
		C11.8,5.9,11.8,5.9,11.8,5.8z M8.4,6C8.4,6,8.4,6,8.4,6C8.4,5.9,8.4,5.9,8.4,6C8.4,5.9,8.5,5.9,8.4,6c0.1-0.1,0.1-0.1,0.1-0.2
		c0,0,0-0.1-0.1,0c0,0-0.1,0-0.1,0c0,0,0,0-0.1,0c0,0,0,0,0,0c0,0,0.1,0,0.1,0c0,0,0,0,0-0.1c0,0,0-0.1-0.1,0c-0.1,0-0.2,0-0.3,0.1
		c0,0-0.1,0,0,0.1c0,0.1,0.1,0.2,0.1,0.4c0,0,0,0.1,0.1,0c0.1,0,0.2,0,0.3-0.1c0,0,0.1,0,0-0.1c0-0.1,0,0-0.1,0C8.5,6,8.5,6,8.4,6z
		 M12.5,6.4c0,0,0.1,0,0.1,0c0,0,0.1,0,0.1,0c0,0,0-0.1,0-0.1C12.6,6.3,12.6,6.3,12.5,6.4c0-0.1,0-0.1,0-0.1c0,0,0,0,0.1,0
		c0,0,0.1,0,0.1,0.1c0,0,0.1,0,0.1,0c0,0,0-0.1,0-0.1c0,0-0.1,0-0.1,0c-0.2-0.1-0.2-0.1-0.3,0.1c0,0.1-0.1,0.2-0.1,0.2
		c0,0.1,0.1,0.1,0.2,0.1c0,0,0,0,0.1,0c0,0,0.1,0,0.1,0c0-0.1,0-0.1,0-0.1C12.6,6.5,12.5,6.5,12.5,6.4C12.5,6.5,12.5,6.4,12.5,6.4
		C12.5,6.4,12.5,6.4,12.5,6.4z M6.3,6.5C6.2,6.5,6.1,6.6,6,6.6c0,0,0,0,0,0.1C6.1,6.8,6.2,6.9,6.2,7c0,0,0,0.1,0.1,0
		c0,0,0.1,0,0-0.1c0,0,0-0.1,0-0.1c0,0,0.1,0,0.1-0.1c0,0,0.1-0.1,0-0.2C6.5,6.5,6.4,6.5,6.3,6.5z M8,5.7c-0.1,0-0.2,0.1-0.3,0.1
		c0,0,0,0,0,0.1c0,0,0,0.1,0.1,0.1c0.1,0,0.1,0,0.1,0.1c0,0.1,0,0.1,0.1,0.2c0,0,0,0,0.1,0c0.1,0,0.1,0,0.1-0.1C8,6.1,8,6,8,6
		c0-0.1,0-0.1,0.1-0.1C8.1,5.8,8.1,5.8,8,5.7C8.1,5.7,8.1,5.7,8,5.7z M7.5,6.4C7.5,6.3,7.5,6.2,7.5,6.4c-0.2,0-0.2,0-0.3-0.2
		c0,0,0-0.1,0-0.1c0-0.1,0-0.1-0.1-0.1C7,6.1,7,6.1,7,6.2c0,0,0,0.1,0,0.1C7.2,6.6,7.1,6.5,7.5,6.4C7.5,6.4,7.5,6.4,7.5,6.4z
		 M13.3,7C13.3,7,13.3,7,13.3,7c0.1-0.1,0.2-0.3,0.2-0.3c0-0.1,0-0.1,0-0.1c0,0-0.1,0-0.1,0c-0.1,0.1-0.1,0.2-0.2,0.3c0,0,0,0,0,0.1
		C13.2,7,13.2,7,13.3,7z M7.7,6.3c0-0.1-0.1-0.3-0.1-0.4c0-0.1-0.1,0-0.1,0c0,0-0.1,0,0,0.1c0,0.1,0.1,0.3,0.1,0.4
		C7.6,6.4,7.6,6.4,7.7,6.3C7.7,6.3,7.7,6.3,7.7,6.3z M9.9,5.7C9.9,5.7,9.9,5.7,9.9,5.7c0-0.1,0-0.1,0-0.2c0-0.1,0-0.1-0.1-0.1
		c-0.1,0-0.1,0-0.1,0.1c0,0.1,0,0.2,0,0.3c0,0.1,0,0.1,0.1,0.1c0.1,0,0.1,0,0.1-0.1C9.9,5.8,9.9,5.8,9.9,5.7z"/>
	<path class="st0" d="M14.8,7.6C14.8,7.6,14.7,7.6,14.8,7.6c-0.2,0.2-0.4,0.4-0.6,0.5c0,0,0,0-0.1,0C14,8,13.9,7.9,13.8,7.9
		c0,0,0,0,0-0.1c0.2-0.2,0.4-0.4,0.5-0.6c0,0,0,0,0.1,0C14.5,7.3,14.6,7.4,14.8,7.6C14.8,7.5,14.8,7.5,14.8,7.6z"/>
	<path class="st0" d="M5.7,7.9C5.7,7.9,5.7,7.9,5.7,7.9C5.6,8,5.5,8.1,5.4,8.2c0,0-0.1,0-0.1,0C5.1,8.1,4.9,7.9,4.7,7.7
		c0,0,0,0,0-0.1c0.1-0.1,0.2-0.2,0.4-0.4c0,0,0.1,0,0.1,0C5.3,7.5,5.5,7.7,5.7,7.9C5.7,7.9,5.7,7.9,5.7,7.9z"/>
	<path class="st0" d="M6.6,7.5C6.5,7.6,6.3,7.8,6.2,7.9C6,8,5.8,8.2,5.6,8.4c0,0,0,0.1-0.1,0c0,0-0.1,0,0-0.1C5.6,8.2,5.7,8.1,5.9,8
		c0.1-0.1,0-0.1,0-0.1C5.7,7.7,5.6,7.5,5.5,7.4c0,0,0-0.1,0-0.1c0.1-0.1,0.1-0.1,0.3,0c0,0,0.1,0.1,0.1,0.1C5.9,7.5,6,7.5,6.2,7.5
		C6.3,7.5,6.5,7.5,6.6,7.5C6.6,7.5,6.6,7.5,6.6,7.5z"/>
	<path class="st0" d="M12.8,7.4c0.2,0,0.3,0,0.5,0c0.1,0,0.2,0,0.3-0.1c0.1-0.1,0.1-0.1,0.2-0.2c0-0.1,0.1,0,0.1,0
		c0.1,0.1,0.2,0.1,0,0.3c-0.1,0.1-0.2,0.3-0.3,0.4c0,0.1,0,0.1,0,0.1c0.1,0.1,0.2,0.2,0.4,0.3c0,0,0,0,0,0.1c0,0,0,0.1-0.1,0
		C13.5,8,13.2,7.7,12.8,7.4z"/>
	<path class="st0" d="M9.7,20.4c-0.4,0-0.8,0-1.3-0.1c-0.8-0.1-1.5-0.3-2.2-0.6c-0.3-0.1-0.6-0.3-0.9-0.4c-0.1,0-0.1-0.1,0-0.1
		c0.2-0.3,0.4-0.6,0.5-0.9c0-0.1,0.1-0.1,0.1,0c0.8,0.5,1.7,0.7,2.6,0.9c0.5,0.1,1,0.1,1.6,0.1c1.1-0.1,2.2-0.4,3.2-0.9
		c0.1,0,0.1,0,0.1,0c0.2,0.3,0.3,0.6,0.5,0.9c0,0.1,0,0.1,0,0.1c-0.8,0.5-1.7,0.8-2.6,1C10.9,20.4,10.3,20.4,9.7,20.4z M12.5,19.4
		c0.1,0,0.1,0.1,0.2,0.1c0.1,0.1,0.1,0,0.2,0c0.1,0,0-0.1,0-0.1c0-0.1-0.1-0.3-0.2-0.4c0-0.1-0.1,0-0.1,0c0,0-0.1,0-0.1,0.1
		c0,0.1,0.1,0.1,0.1,0.2c-0.1-0.1-0.2-0.1-0.2-0.2c-0.1-0.1-0.1,0-0.2,0c-0.1,0,0,0.1,0,0.1c0,0.1,0.1,0.3,0.1,0.4
		c0,0.1,0.1,0.1,0.1,0c0,0,0.1,0,0.1-0.1C12.6,19.5,12.5,19.5,12.5,19.4C12.5,19.4,12.5,19.4,12.5,19.4z M8.1,19.7
		c0-0.1-0.1-0.2-0.1-0.3c0-0.1-0.1-0.1-0.2-0.1c0,0,0,0-0.1,0c0,0.2-0.1,0.3-0.1,0.5c0,0.1,0.1,0.1,0.1,0.1c0,0,0.1,0,0.1,0
		c0-0.1,0-0.1,0-0.2C8,19.7,8,19.8,8,19.9C8,20,8.1,20,8.2,20c0.1,0,0-0.1,0.1-0.1c0-0.1,0.1-0.3,0.1-0.4c0-0.1,0-0.1-0.1-0.1
		c0,0-0.1,0-0.1,0C8.1,19.5,8.1,19.6,8.1,19.7z M10.8,19.7C10.8,19.7,10.8,19.7,10.8,19.7c-0.1-0.1-0.1-0.1-0.2-0.2
		c-0.1-0.1-0.1,0-0.2,0c-0.1,0,0,0.1,0,0.1c0,0.1,0,0.3,0.1,0.4c0,0,0,0.1,0.1,0.1c0.1,0,0.1,0,0.1-0.1c0,0,0-0.1,0-0.1c0,0,0,0,0,0
		c0,0,0,0,0.1,0c0,0.1,0.1,0.1,0.1,0.2c0.1,0.1,0.1,0,0.2,0c0,0,0,0,0,0c0-0.2,0-0.3-0.1-0.5c0-0.1-0.1,0-0.1,0c0,0,0,0,0,0.1
		C10.8,19.6,10.8,19.7,10.8,19.7z M13.3,19.1c0,0.1,0,0.1-0.1,0.1c0,0-0.1,0-0.1-0.1c0,0-0.1-0.1-0.1-0.1c0-0.1,0-0.2,0.2-0.1
		c0.1,0,0.1,0,0.2-0.1c0,0,0-0.1-0.1-0.1c0,0,0,0,0,0c-0.1,0-0.3,0.1-0.4,0.2c-0.1,0.1,0,0.3,0.1,0.4c0.1,0.1,0.3,0.1,0.4-0.1
		c0,0,0,0,0.1,0c0.1,0,0.1,0,0.1-0.1c0,0,0,0,0,0c-0.1-0.2-0.1-0.2-0.2-0.1c0,0-0.1,0-0.1,0.1C13.2,19.2,13.3,19.2,13.3,19.1z
		 M11.7,19.7c0-0.2-0.1-0.4-0.4-0.3c-0.1,0-0.1,0-0.2,0c-0.1,0-0.1,0-0.1,0.1c0,0.1,0,0.2,0.1,0.2c0,0.1,0,0.2,0.1,0.3
		c0.1,0,0.2,0,0.3-0.1C11.6,19.9,11.7,19.8,11.7,19.7z M8.6,19.8c0-0.1,0-0.2,0.1-0.2c0.1,0,0.1,0,0.2,0.1c0,0,0.1,0.1,0.2,0
		c0,0,0-0.1-0.1-0.2c-0.1-0.1-0.3-0.1-0.4,0c-0.1,0.1-0.2,0.3-0.1,0.4c0.1,0.1,0.2,0.2,0.3,0.1c0,0,0,0,0.1,0c0,0,0.1,0,0.1-0.1
		c0-0.1,0-0.1,0-0.2c0,0,0,0,0,0c-0.1,0-0.1,0-0.2,0c0,0,0,0,0,0.1c0,0,0,0.1,0,0.1c0,0,0.1,0,0,0c0,0,0,0-0.1,0
		C8.6,19.9,8.6,19.9,8.6,19.8z M5.9,19.1c0,0.1,0.1,0.2,0.3,0.3c0.1,0,0.2,0,0.2-0.1c0.1-0.1,0.1-0.2,0.2-0.3c0-0.1-0.1-0.1-0.1-0.1
		c0,0-0.1,0-0.1,0c0,0.1-0.1,0.2-0.1,0.3c0,0.1-0.1,0.1-0.1,0.1c-0.1,0-0.1-0.1,0-0.1c0-0.1,0.1-0.2,0.1-0.3c0,0,0,0,0-0.1
		c-0.1-0.1-0.2-0.1-0.2,0C6,18.9,6,19,6,19C5.9,19.1,5.9,19.1,5.9,19.1z M7.4,19.8c0.1,0,0.2,0,0.2-0.1c0-0.1,0.1-0.2,0.1-0.3
		c0-0.1,0-0.1-0.1-0.1c0,0-0.1-0.1-0.1,0c0,0.1-0.1,0.2-0.1,0.3c0,0.1-0.1,0.1-0.1,0.1c-0.1,0-0.1-0.1,0-0.1c0-0.1,0.1-0.2,0.1-0.3
		c0-0.1,0-0.1-0.1-0.1c0,0-0.1-0.1-0.1,0c0,0.1-0.1,0.2-0.1,0.3c0,0.1,0,0.2,0.1,0.2C7.2,19.8,7.3,19.8,7.4,19.8z M9.3,19.8
		C9.3,19.8,9.3,19.8,9.3,19.8c0,0.1,0,0.1,0,0.2c0,0.1,0.1,0.1,0.1,0.1c0.1,0,0.1,0,0.1-0.1c0-0.1,0-0.1,0.1-0.1c0,0,0,0,0.1,0
		c0.1,0,0.2-0.1,0.2-0.2c0-0.1-0.1-0.2-0.2-0.2c-0.1,0-0.2,0-0.3,0c-0.1,0-0.1,0-0.1,0.1C9.3,19.7,9.3,19.7,9.3,19.8z M9.8,20.1
		c0.1,0,0.2,0.1,0.2-0.1c0,0,0.2,0,0.2,0c0,0.1,0.1,0.1,0.2,0.1c0,0,0.1,0,0-0.1c-0.1-0.2-0.1-0.3-0.2-0.5c0-0.1-0.1,0-0.2,0
		c0,0-0.1,0-0.1,0.1C9.9,19.7,9.9,19.9,9.8,20.1z M11.8,19.9c0.1,0,0.2,0,0.2-0.1c0,0,0.2-0.1,0.2,0c0,0.1,0.1,0,0.2,0
		c0.1,0,0,0,0-0.1c-0.1-0.1-0.2-0.3-0.3-0.4c0,0,0,0-0.1,0c0,0-0.1,0-0.1,0.1C11.8,19.5,11.8,19.7,11.8,19.9z M6.7,19.4
		c0-0.1-0.1-0.1-0.1-0.1c-0.1,0-0.1,0-0.1,0.1c0,0.1,0,0.2,0.1,0.3c0.1,0.1,0.2,0,0.3-0.1C7,19.4,7,19.3,7.1,19.2
		c0-0.1,0-0.1-0.1-0.1c0,0-0.1,0-0.1,0C6.9,19.2,6.8,19.3,6.7,19.4C6.8,19.4,6.8,19.5,6.7,19.4C6.7,19.4,6.7,19.4,6.7,19.4z"/>
	<path class="st0" d="M5.4,17.9c-0.2,0.3-0.4,0.6-0.7,0.9c0,0.1-0.1,0.1-0.1,0c-0.4-0.3-0.8-0.7-1.2-1c0,0-0.1,0-0.1-0.1
		c0.3,0.1,0.5,0.1,0.8,0.2c0.1,0,0.2,0,0.2,0.1c0.1,0,0.1,0,0.1-0.1c-0.1-0.3-0.2-0.6-0.2-0.9c0,0,0,0,0-0.1
		C4.6,17.3,4.9,17.6,5.4,17.9z"/>
	<path class="st0" d="M16.1,17.7c-0.1,0.1-0.3,0.3-0.4,0.4c-0.3,0.2-0.6,0.5-0.9,0.7c-0.1,0.1-0.1,0-0.2,0c-0.2-0.3-0.4-0.5-0.6-0.8
		c0,0-0.1-0.1,0-0.1c0.4-0.3,0.7-0.6,1-0.9c0,0,0,0,0.1,0c0,0,0,0,0,0.1c-0.1,0.3-0.2,0.6-0.2,0.9c0,0.1,0,0.1,0.1,0.1
		C15.4,17.9,15.7,17.8,16.1,17.7C16,17.7,16,17.7,16.1,17.7z"/>
	<path class="st0" d="M5.2,19.5c-0.3-0.2-0.6-0.4-0.9-0.5c0.1,0,0.2,0,0.2,0.1c0.1,0,0.1,0,0.2,0c0.2-0.2,0.3-0.4,0.5-0.6
		c0,0,0.1-0.1,0.1,0c0.2,0.1,0.2,0.1,0.1,0.3c-0.1,0.2-0.2,0.3-0.3,0.5c0,0.1,0,0.1,0,0.2C5.2,19.4,5.2,19.4,5.2,19.5
		C5.3,19.5,5.3,19.5,5.2,19.5z"/>
	<path class="st0" d="M15,19c-0.3,0.2-0.6,0.4-0.9,0.6c0,0,0,0,0,0c0.1-0.1,0.1-0.1,0.2-0.2c0.1,0,0.1-0.1,0-0.1
		c-0.1-0.2-0.3-0.4-0.4-0.6c0,0,0-0.1,0-0.1c0.2-0.1,0.2-0.1,0.4,0.1c0.1,0.2,0.2,0.3,0.4,0.5c0,0,0.1,0.1,0.1,0
		C14.8,19,14.9,18.9,15,19C15,18.9,15,19,15,19z"/>
	<path class="st0" d="M8.3,18.5c0.4,0,0.9,0,1.3,0c0,0,0.1,0,0.1,0c0,0.1,0,0.1,0,0.2c0,0-0.1,0-0.1,0c-0.3,0-0.6-0.1-0.9-0.1
		C8.6,18.6,8.5,18.6,8.3,18.5z"/>
	<path class="st0" d="M11.1,18.5c-0.2,0-0.3,0.1-0.5,0.1c-0.3,0.1-0.5,0.1-0.8,0.1c-0.1,0-0.1-0.1-0.1-0.1c0-0.1,0-0.1,0.1-0.1
		C10.3,18.5,10.7,18.5,11.1,18.5C11.1,18.5,11.1,18.5,11.1,18.5z"/>
	<path class="st0" d="M9.4,18.2c-0.1,0-0.2,0-0.2,0c0,0-0.1,0-0.1,0c0,0,0-0.1,0-0.1C9.2,18,9.3,18,9.4,18c0.1,0,0.2,0,0.3,0
		c0.1,0,0.1,0.1,0.1,0.1c0,0.1,0,0.1-0.1,0.1C9.5,18.2,9.5,18.2,9.4,18.2z"/>
	<path class="st0" d="M10.1,18.2c-0.1,0-0.1,0-0.2,0c-0.1,0-0.1,0-0.1-0.1c0,0,0,0,0-0.1c0.2,0,0.3,0,0.5,0.1c0.1,0,0.1,0.1,0.1,0.1
		c0,0.1-0.1,0-0.1,0C10.2,18.2,10.1,18.2,10.1,18.2z"/>
	<path class="st0" d="M8,18.2c-0.1,0-0.2,0-0.3,0c0,0-0.1,0-0.1-0.1c0,0,0,0,0.1,0c0.2,0,0.3,0,0.5,0c0,0,0.1,0,0.1,0.1
		c0,0.1,0,0-0.1,0C8.2,18.2,8.1,18.2,8,18.2z"/>
	<path class="st0" d="M11.4,18.2c-0.1,0-0.2,0-0.2,0c0,0-0.1,0-0.1-0.1c0,0,0,0,0.1,0c0.2,0,0.3,0,0.5,0c0,0,0.1,0,0.1,0
		c0,0,0,0.1-0.1,0.1C11.6,18.2,11.5,18.2,11.4,18.2z"/>
	<path class="st0" d="M8.3,18.4c0,0-0.1,0-0.1,0c0,0-0.1,0-0.1-0.1c0-0.1,0-0.1,0.1-0.1c0.1,0,0.2,0,0.3,0c0.1,0,0.1,0,0.1,0.1
		c0,0.1,0,0.1-0.1,0.1C8.4,18.4,8.4,18.4,8.3,18.4z"/>
	<path class="st0" d="M11.1,18.4c0,0-0.1,0-0.1,0c-0.1,0-0.1,0-0.1-0.1c0-0.1,0-0.1,0.1-0.1c0.1,0,0.2,0,0.2,0c0.1,0,0.1,0,0.1,0.1
		c0,0.1,0,0.1-0.1,0.1C11.2,18.4,11.2,18.4,11.1,18.4z"/>
	<path class="st0" d="M9.2,18.4c0,0-0.1,0-0.1,0c0,0-0.1,0-0.1-0.1c0,0,0-0.1,0.1-0.1c0.1,0,0.1,0,0.2,0c0.1,0,0.1,0,0.1,0.1
		C9.4,18.4,9.3,18.4,9.2,18.4C9.3,18.4,9.2,18.4,9.2,18.4z"/>
	<path class="st0" d="M10.3,18.3C10.3,18.3,10.3,18.3,10.3,18.3c0.1,0,0.2,0,0.2,0.1c0,0.1,0,0.1-0.1,0.1c-0.1,0-0.1,0-0.2,0
		c-0.1,0-0.1,0-0.1-0.1C10.1,18.3,10.1,18.3,10.3,18.3C10.2,18.3,10.2,18.3,10.3,18.3z"/>
	<path class="st0" d="M11.5,18.4C11.5,18.4,11.5,18.4,11.5,18.4c-0.1,0-0.1,0-0.1-0.1c0-0.1,0-0.1,0.1-0.1c0,0,0.1,0,0.1,0
		c0,0,0.1,0,0.1,0.1C11.7,18.4,11.6,18.4,11.5,18.4C11.6,18.4,11.6,18.4,11.5,18.4z"/>
	<path class="st0" d="M7.9,18.4c-0.1,0-0.1,0-0.1-0.1c0,0,0,0,0.1,0c0.1,0,0.1,0,0.2,0c0.1,0,0.1,0,0.1,0.1C8,18.4,8,18.4,7.9,18.4
		C8,18.4,7.9,18.4,7.9,18.4z"/>
	<path class="st0" d="M8.8,18.4c0,0-0.1,0-0.1-0.1c0,0,0-0.1,0.1-0.1c0,0,0.1,0,0.1,0c0,0,0.1,0,0.1,0.1C8.9,18.4,8.9,18.4,8.8,18.4
		C8.8,18.4,8.8,18.4,8.8,18.4z"/>
	<path class="st0" d="M10.7,18.4c0,0-0.1,0-0.1-0.1c0,0,0,0,0,0c0.1,0,0.1,0,0.2,0c0.1,0,0,0,0,0.1C10.8,18.4,10.8,18.4,10.7,18.4
		C10.7,18.4,10.7,18.4,10.7,18.4z"/>
	<path class="st0" d="M9.6,18.3c0,0,0.1,0,0.1,0.1c0,0.1-0.1,0.1-0.1,0.1c0,0-0.1,0-0.1-0.1C9.5,18.3,9.5,18.3,9.6,18.3z"/>
	<path class="st3" d="M9.9,18.3c0.1,0,0.1,0,0.1,0.1c0,0.1-0.1,0.1-0.1,0.1c0,0-0.1,0-0.1-0.1C9.8,18.2,9.8,18.3,9.9,18.3z"/>
	<path class="st0" d="M7.6,13.2c-0.5,0-1,0.3-1.3,0.6c-0.2,0.2-0.3,0.3-0.5,0.5c-0.4,0.2-0.7,0.3-1.2,0.2c-0.4,0-0.8-0.2-1.1-0.4
		c-0.4-0.3-0.6-0.6-0.7-1.1c0,0,0,0,0-0.1c0,0,0,0,0,0c0.3,0.4,0.7,0.6,1.2,0.7c0.6,0.1,1.3,0.1,1.9-0.2c0.2-0.1,0.4-0.2,0.6-0.3
		C6.8,13,7.2,13,7.6,13.2C7.6,13.2,7.6,13.2,7.6,13.2z"/>
	<path class="st0" d="M16.8,12.9c-0.1,0.6-0.4,1-1,1.3c-0.3,0.2-0.7,0.3-1.1,0.3c-0.5,0-1-0.2-1.4-0.6c-0.3-0.3-0.6-0.5-0.9-0.6
		c-0.2-0.1-0.4-0.1-0.6-0.1c0.2-0.1,0.3-0.1,0.5-0.2c0.4,0,0.8,0.1,1.1,0.3c0.4,0.2,0.8,0.3,1.2,0.4c0.4,0,0.8,0,1.1-0.1
		C16.1,13.5,16.5,13.3,16.8,12.9C16.7,12.9,16.7,12.9,16.8,12.9z"/>
	<path class="st0" d="M11.7,13.9c0.2,0,0.4,0.1,0.5,0.4c0.1,0.3,0.2,0.7,0.4,1c0.4,0.6,0.9,0.9,1.6,0.9c0.3,0,0.6,0,1-0.1
		c0,0,0.1,0,0.1,0c-0.1,0.2-0.3,0.3-0.4,0.4c-0.3,0.2-0.7,0.3-1.1,0.3c-0.4,0-0.9-0.1-1.2-0.4c-0.2-0.2-0.3-0.5-0.4-0.8
		c0-0.3,0-0.5,0-0.8C12.1,14.4,12,14.1,11.7,13.9z"/>
	<path class="st0" d="M4.3,16.1c0.2,0.1,0.4,0.1,0.5,0.1c0.5,0.1,1.1,0,1.5-0.3c0.4-0.3,0.7-0.7,0.8-1.2c0-0.1,0.1-0.3,0.1-0.4
		c0.1-0.2,0.2-0.4,0.5-0.4c-0.3,0.2-0.4,0.6-0.3,0.9c0,0.4,0,0.7-0.1,1c-0.2,0.4-0.4,0.6-0.8,0.7c-0.3,0.1-0.5,0.2-0.8,0.1
		C5.1,16.7,4.7,16.5,4.3,16.1C4.3,16.1,4.3,16.1,4.3,16.1z"/>
	<path class="st0" d="M10,17.4c0-0.2,0.1-0.3,0.2-0.4c0.1-0.1,0.2-0.2,0.4-0.2c0.1,0,0.2,0,0.3,0.1c0.1,0.1,0.2,0.3,0.3,0.4
		C10.7,17.2,10.4,17.2,10,17.4C10,17.4,10,17.4,10,17.4z"/>
	<path class="st2" d="M10,17.7c0-0.1,0-0.1,0.1-0.2c0.3-0.3,0.7-0.2,1.1,0c0,0,0.1,0,0,0.1c0,0,0,0-0.1,0c-0.1-0.1-0.3-0.1-0.4-0.1
		c-0.2,0-0.4,0.1-0.6,0.2C10.1,17.6,10,17.7,10,17.7z"/>
	<path class="st3" d="M10,17.4C10,17.4,10,17.4,10,17.4C10,17.4,10,17.4,10,17.4C10,17.4,10,17.4,10,17.4z"/>
	<path class="st0" d="M8.4,17.3c0.1-0.2,0.2-0.3,0.3-0.5c0,0,0,0,0.1,0c0.3,0,0.5,0,0.6,0.4c0,0.1,0.1,0.1,0.1,0.2
		C9.1,17.2,8.7,17.2,8.4,17.3C8.4,17.4,8.4,17.3,8.4,17.3z"/>
	<path class="st2" d="M9.5,17.7c-0.1-0.1-0.2-0.1-0.3-0.2c-0.3-0.1-0.5-0.1-0.8,0c0,0-0.1,0.1-0.1,0c0-0.1,0-0.1,0.1-0.1
		c0.4-0.2,0.7-0.2,1,0C9.5,17.5,9.5,17.6,9.5,17.7z"/>
	<path class="st1" d="M10,14.9c-0.1-0.1-0.2,0-0.3,0c-0.1,0-0.2,0-0.3,0c-0.1,0-0.1,0-0.1-0.1c0-0.2,0-0.3-0.2-0.5c0,0,0,0,0-0.1
		c0,0,0,0,0,0c0.2,0,0.4-0.1,0.5-0.3c0,0,0-0.1,0-0.1c0,0,0,0,0,0.1c0.1,0.2,0.2,0.3,0.4,0.3c0.1,0,0.1,0,0,0.1
		C10.1,14.4,10.1,14.6,10,14.9C10.1,14.9,10.1,14.9,10,14.9z M9.5,14.7C9.4,14.8,9.5,14.8,9.5,14.7c0.2,0,0.4,0,0.5,0.1
		c0,0,0.1,0,0.1,0c0-0.2,0-0.3,0.1-0.4c0,0,0-0.1,0-0.1c-0.1,0-0.3-0.1-0.3-0.2c0,0,0-0.1,0-0.1c0,0,0,0,0,0.1
		c-0.1,0.1-0.2,0.2-0.3,0.2c0,0-0.1,0-0.1,0c0,0,0,0,0,0.1C9.4,14.5,9.5,14.6,9.5,14.7z"/>
	<path class="st1" d="M8.9,14.2C8.9,14.3,8.9,14.3,8.9,14.2C8.9,14.3,8.9,14.3,8.9,14.2C8.9,14.2,8.9,14.2,8.9,14.2z"/>
	<path class="st1" d="M9.8,11c0.1,0.2,0.2,0.4,0.2,0.6c0,0,0,0.1,0,0.1c0,0,0,0,0-0.1c-0.1-0.1-0.1-0.3-0.2-0.4
		c-0.1,0.2-0.1,0.3-0.2,0.5c0,0,0,0.1,0,0.1c0,0,0,0,0-0.1C9.5,11.5,9.6,11.3,9.8,11C9.7,11.1,9.7,11,9.8,11z"/>
	<path class="st1" d="M9.7,11.6C9.8,11.7,9.8,11.7,9.7,11.6c0.1,0.2,0.1,0.2,0,0.3c0,0,0,0,0,0c0,0-0.1-0.1-0.1-0.1c0,0,0-0.1,0-0.1
		C9.7,11.7,9.7,11.7,9.7,11.6z"/>
	<path class="st1" d="M11,5.8c0,0.1,0,0.1,0,0.2c0,0.1,0,0.1-0.1,0.1c0,0-0.1,0-0.1-0.1c0-0.1,0-0.2,0.1-0.3c0,0,0-0.1,0-0.1
		c0,0,0.1,0,0.1,0.1c0,0.1,0.1,0.1,0.1,0.2c0-0.1,0-0.1,0-0.2c0-0.1,0-0.1,0.1-0.1c0.1,0,0.1,0.1,0.1,0.1c0,0.1,0,0.2-0.1,0.3
		c0,0,0,0.1,0,0.1c0,0-0.1,0-0.1-0.1C11,6,11,5.9,11,5.8z"/>
	<path class="st1" d="M9.5,5.7c0-0.1,0-0.1,0-0.2c0-0.1,0-0.1,0.1-0.1c0.1,0,0.1,0,0.1,0.1c0,0.1,0,0.2,0,0.3c0,0,0,0.1,0,0.1
		c0,0-0.1,0-0.1,0c0-0.1-0.1-0.1-0.1-0.2c0,0,0,0.1,0,0.1c0,0.1,0,0.1-0.1,0.1c-0.1,0-0.1,0-0.1-0.1c0-0.1,0-0.2,0-0.3
		c0,0,0-0.1,0-0.1c0.1,0,0.1,0,0.1,0C9.4,5.6,9.5,5.7,9.5,5.7z"/>
	<path class="st1" d="M13.3,6.5C13.3,6.6,13.3,6.6,13.3,6.5c-0.1,0.1-0.1,0.2-0.2,0.3c0,0,0,0.1-0.1,0c0,0-0.1,0-0.1-0.1
		c0,0,0,0,0-0.1c0,0,0-0.1-0.1-0.1c0,0,0,0-0.1,0c0,0.1-0.1,0.1-0.1,0c0,0,0,0,0-0.1c0.1-0.1,0.1-0.2,0.2-0.3c0,0,0-0.1,0.1,0
		C13,6.3,13.1,6.4,13.3,6.5C13.2,6.5,13.3,6.5,13.3,6.5z M13.1,6.5C13.1,6.5,13.1,6.5,13.1,6.5c-0.1-0.1-0.1,0-0.1,0
		C13,6.6,13,6.6,13.1,6.5C13.1,6.6,13.1,6.6,13.1,6.5z"/>
	<path class="st1" d="M11.8,6.1c0-0.1,0-0.2,0.1-0.2c0.1-0.1,0.2,0,0.3,0c0,0,0,0,0,0c0,0,0.1,0.1,0,0.2c0,0-0.1,0-0.1-0.1
		c0,0,0,0,0,0c0,0-0.1,0-0.1,0c0,0-0.1,0.1-0.1,0.2c0,0,0,0.1,0.1,0.1c0,0,0,0,0,0c0,0,0,0,0,0c0,0,0-0.1,0-0.1c0,0,0,0,0.1,0
		c0,0,0,0,0.1,0c0.1,0,0.1,0.1,0.1,0.1c0,0,0,0,0,0.1c0,0.1-0.1,0.1-0.1,0c0,0-0.1,0-0.1,0C11.9,6.4,11.8,6.3,11.8,6.1z"/>
	<path class="st1" d="M6.8,6.2c0.1,0,0.2,0.1,0.2,0.3c0,0.1-0.1,0.2-0.3,0.2c-0.1,0-0.3-0.1-0.3-0.3C6.5,6.3,6.7,6.2,6.8,6.2z
		 M6.9,6.5c0-0.1-0.1-0.2-0.1-0.2c-0.1,0-0.1,0-0.1,0.1C6.7,6.5,6.8,6.6,6.9,6.5C6.9,6.6,6.9,6.5,6.9,6.5z"/>
	<path class="st1" d="M8.8,5.7C8.9,5.6,9,5.5,9.1,5.5C9.1,5.6,9,5.6,9,5.7c0,0.1,0.1,0.1,0.1,0.2c0,0,0,0,0.1,0.1C9.1,6,9,6,8.9,5.9
		c0,0,0-0.1-0.1-0.1c0,0,0,0.1,0,0.1C8.9,6,8.9,6,8.8,6C8.7,6.1,8.7,6,8.7,6c0-0.1,0-0.2,0-0.3c0,0,0-0.1,0-0.1
		C8.8,5.6,8.8,5.5,8.8,5.7C8.8,5.6,8.8,5.7,8.8,5.7z"/>
	<path class="st1" d="M10.5,6c-0.1,0-0.2,0-0.2-0.1c0,0,0-0.1,0-0.1c0,0,0,0,0,0.1c0,0,0,0.1-0.1,0.1C10.1,6,10,6,10,5.9
		c0-0.1,0-0.2,0-0.3c0-0.1,0-0.1,0.1-0.1c0.1,0,0.1,0,0.1,0.1c0,0,0,0,0,0.1c0.1-0.1,0.2-0.2,0.3-0.1c0,0,0,0,0,0
		c-0.1,0.1-0.1,0.1,0,0.3C10.5,5.9,10.5,5.9,10.5,6z"/>
	<path class="st1" d="M11.8,5.8C11.8,5.9,11.8,5.9,11.8,5.8c-0.1,0-0.2,0-0.2,0c0,0,0,0,0,0c0,0,0,0,0,0c0,0,0.1,0,0.1,0
		c0,0,0.1,0,0,0.1c0,0,0,0.1-0.1,0c0,0-0.1,0-0.1,0c0,0,0,0,0,0c0,0,0,0,0,0c0,0,0.1,0,0.1,0c0,0,0.1,0,0.1,0.1c0,0.1-0.1,0-0.1,0
		c-0.1,0-0.2-0.1-0.3-0.1c0,0-0.1,0,0-0.1c0-0.1,0.1-0.2,0.1-0.4c0,0,0-0.1,0.1,0C11.6,5.7,11.7,5.8,11.8,5.8
		C11.8,5.8,11.8,5.8,11.8,5.8z"/>
	<path class="st1" d="M8.4,6c0.1,0,0.1,0,0.1,0c0,0,0.1,0,0.1,0c0,0,0,0.1,0,0.1c-0.1,0-0.2,0-0.3,0.1c0,0-0.1,0-0.1,0
		c0-0.1-0.1-0.2-0.1-0.4c0,0,0-0.1,0-0.1c0.1,0,0.2,0,0.3-0.1c0,0,0.1,0,0.1,0c0,0,0,0.1,0,0.1c0,0-0.1,0-0.1,0c0,0-0.1,0,0,0
		c0,0,0,0,0.1,0c0,0,0.1,0,0.1,0c0,0,0.1,0,0.1,0C8.6,5.9,8.5,5.9,8.4,6C8.5,5.9,8.4,5.9,8.4,6C8.4,5.9,8.4,5.9,8.4,6
		C8.4,6,8.4,6,8.4,6z"/>
	<path class="st1" d="M12.5,6.4C12.5,6.4,12.5,6.4,12.5,6.4C12.5,6.4,12.5,6.5,12.5,6.4c0,0.1,0.1,0.1,0.1,0.1c0,0,0.1,0,0,0.1
		c0,0.1,0,0-0.1,0c0,0,0,0-0.1,0c-0.1,0-0.2,0-0.2-0.1c0-0.1,0.1-0.2,0.1-0.2c0.1-0.2,0.1-0.2,0.3-0.1c0,0,0.1,0,0.1,0
		c0,0,0,0,0,0.1c0,0,0,0.1-0.1,0c0,0-0.1,0-0.1-0.1c0,0-0.1,0-0.1,0C12.5,6.3,12.6,6.3,12.5,6.4c0.1-0.1,0.1-0.1,0.2-0.1
		c0,0,0,0,0,0.1c0,0,0,0.1-0.1,0C12.6,6.4,12.5,6.4,12.5,6.4z"/>
	<path class="st1" d="M6.3,6.5c0.1,0,0.1,0,0.2,0.1c0,0.1,0,0.1,0,0.2c0,0,0,0-0.1,0.1c-0.1,0-0.1,0.1,0,0.1C6.4,7,6.4,7,6.3,7
		C6.3,7,6.3,7,6.2,7C6.2,6.9,6.1,6.8,6.1,6.7c0,0,0-0.1,0-0.1C6.1,6.6,6.2,6.5,6.3,6.5z M6.3,6.6C6.3,6.6,6.2,6.6,6.3,6.6
		c-0.1,0.1-0.1,0.1,0,0.1C6.3,6.7,6.4,6.7,6.3,6.6C6.4,6.6,6.3,6.6,6.3,6.6z"/>
	<path class="st1" d="M8,5.7C8.1,5.7,8.1,5.7,8,5.7c0.1,0.1,0.1,0.1,0,0.1C8,5.8,8,5.9,8,6c0,0,0,0.1,0,0.1c0,0.1,0,0.1-0.1,0.1
		c0,0-0.1,0-0.1,0c0-0.1,0-0.1-0.1-0.2c0-0.1,0-0.1-0.1-0.1c0,0,0,0-0.1-0.1c0,0,0-0.1,0-0.1C7.8,5.8,7.9,5.7,8,5.7z"/>
	<path class="st1" d="M7.5,6.4C7.5,6.4,7.5,6.4,7.5,6.4C7.1,6.5,7.2,6.6,7.1,6.3c0,0,0-0.1,0-0.1c0,0-0.1-0.1,0-0.1
		c0.1,0,0.1,0,0.1,0.1c0,0,0,0.1,0,0.1C7.3,6.3,7.3,6.3,7.5,6.4C7.5,6.2,7.5,6.3,7.5,6.4z"/>
	<path class="st1" d="M13.3,7c0,0-0.1,0-0.1-0.1c0,0,0,0,0-0.1c0.1-0.1,0.1-0.2,0.2-0.3c0-0.1,0.1,0,0.1,0c0,0,0.1,0,0,0.1
		C13.4,6.8,13.4,6.9,13.3,7C13.3,7,13.3,7,13.3,7z"/>
	<path class="st1" d="M7.7,6.3C7.7,6.3,7.7,6.3,7.7,6.3c-0.1,0.1-0.1,0.1-0.2,0c0-0.1-0.1-0.3-0.1-0.4c0,0,0-0.1,0-0.1
		c0,0,0.1,0,0.1,0C7.6,6,7.7,6.1,7.7,6.3z"/>
	<path class="st1" d="M9.9,5.7c0,0.1,0,0.1,0,0.2C9.9,5.9,10,6,9.9,6c-0.1,0-0.1,0-0.1-0.1c0-0.1,0-0.2,0-0.3c0-0.1,0-0.1,0.1-0.1
		c0,0,0.1,0,0.1,0.1C9.9,5.6,9.9,5.7,9.9,5.7C9.9,5.7,9.9,5.7,9.9,5.7z"/>
	<path class="st1" d="M12.5,19.4c0,0.1,0,0.1,0.1,0.2c0,0.1,0,0.1-0.1,0.1c0,0-0.1,0-0.1,0c0-0.1-0.1-0.3-0.1-0.4c0,0-0.1-0.1,0-0.1
		c0.1,0,0.1-0.1,0.2,0c0.1,0.1,0.1,0.1,0.2,0.2c0-0.1,0-0.2-0.1-0.2c0-0.1,0-0.1,0.1-0.1c0,0,0.1-0.1,0.1,0c0,0.1,0.1,0.3,0.2,0.4
		c0,0,0.1,0.1,0,0.1c-0.1,0-0.1,0.1-0.2,0C12.7,19.5,12.6,19.4,12.5,19.4C12.5,19.4,12.5,19.4,12.5,19.4
		C12.5,19.4,12.5,19.4,12.5,19.4z"/>
	<path class="st1" d="M8.1,19.7c0-0.1,0-0.2,0.1-0.2c0-0.1,0.1,0,0.1,0c0,0,0.1,0,0.1,0.1c0,0.1-0.1,0.3-0.1,0.4c0,0,0,0.1-0.1,0.1
		C8.1,20,8,20,8,19.9c0-0.1-0.1-0.2-0.1-0.3c0,0.1,0,0.1,0,0.2c0,0.1,0,0.1-0.1,0c0,0-0.1,0-0.1-0.1c0-0.2,0.1-0.3,0.1-0.5
		c0,0,0,0,0.1,0c0.1,0,0.1,0,0.2,0.1C8,19.5,8.1,19.6,8.1,19.7z"/>
	<path class="st1" d="M10.8,19.7c0-0.1,0-0.1,0-0.2c0,0,0-0.1,0-0.1c0,0,0.1,0,0.1,0c0,0.2,0.1,0.3,0.1,0.5c0,0,0,0,0,0
		c-0.1,0-0.1,0.1-0.2,0c0-0.1-0.1-0.1-0.1-0.2c0,0,0,0-0.1,0c0,0,0,0,0,0c0,0,0,0.1,0,0.1c0,0.1,0,0.1-0.1,0.1c-0.1,0-0.1,0-0.1-0.1
		c0-0.1,0-0.3-0.1-0.4c0,0,0-0.1,0-0.1c0.1,0,0.1-0.1,0.2,0C10.7,19.6,10.8,19.7,10.8,19.7C10.8,19.7,10.8,19.7,10.8,19.7z"/>
	<path class="st1" d="M13.3,19.1c-0.1,0-0.1,0-0.1,0c0-0.1,0-0.1,0.1-0.1c0.2-0.1,0.2-0.1,0.2,0.1c0,0,0,0,0,0
		c0.1,0.1,0,0.1-0.1,0.1c0,0,0,0-0.1,0c-0.1,0.1-0.3,0.1-0.4,0.1c-0.1-0.1-0.2-0.3-0.1-0.4c0.1-0.1,0.2-0.2,0.4-0.2c0,0,0,0,0,0
		c0,0,0.1,0.1,0.1,0.1c0,0-0.1,0.1-0.2,0.1c-0.1,0-0.2,0-0.2,0.1c0,0,0,0.1,0.1,0.1c0,0,0.1,0.1,0.1,0.1
		C13.3,19.2,13.3,19.2,13.3,19.1z"/>
	<path class="st1" d="M11.7,19.7c0,0.1-0.1,0.2-0.2,0.3c-0.1,0-0.2,0.1-0.3,0.1c-0.1,0-0.1-0.2-0.1-0.3c0-0.1,0-0.2-0.1-0.2
		c0,0,0-0.1,0.1-0.1c0.1,0,0.1,0,0.2,0C11.5,19.3,11.7,19.4,11.7,19.7z M11.5,19.7c0,0,0-0.1,0-0.1c0-0.1-0.1-0.1-0.1,0
		c-0.1,0,0,0.1,0,0.1c0,0,0,0.1,0,0.1c0,0,0,0.1,0.1,0.1C11.5,19.8,11.5,19.8,11.5,19.7z"/>
	<path class="st1" d="M8.6,19.8c0,0.1,0,0.1,0.1,0.1c0,0,0.1,0,0.1,0c0,0,0,0,0,0c0,0,0,0,0-0.1c0,0,0-0.1,0-0.1c0.1,0,0.1,0,0.2,0
		c0,0,0,0,0,0c0,0.1,0,0.1,0,0.2c0,0.1-0.1,0.1-0.1,0.1c0,0-0.1,0-0.1,0c-0.2,0-0.3,0-0.3-0.1c-0.1-0.1,0-0.4,0.1-0.4
		c0.1-0.1,0.3-0.1,0.4,0c0,0,0.1,0.1,0.1,0.2c0,0-0.1,0-0.2,0c0-0.1-0.1-0.1-0.2-0.1C8.6,19.6,8.6,19.7,8.6,19.8z"/>
	<path class="st1" d="M5.9,19.1c0,0,0-0.1,0-0.1C6,19,6,18.9,6.1,18.8c0-0.1,0.1-0.1,0.2,0c0,0,0,0,0,0.1c0,0.1-0.1,0.2-0.1,0.3
		c0,0.1,0,0.1,0,0.1c0.1,0,0.1,0,0.1-0.1c0-0.1,0.1-0.2,0.1-0.3c0,0,0-0.1,0.1,0c0,0,0.1,0,0.1,0.1c-0.1,0.1-0.1,0.2-0.2,0.3
		c0,0.1-0.1,0.1-0.2,0.1C6.1,19.4,5.9,19.3,5.9,19.1z"/>
	<path class="st1" d="M7.4,19.8c-0.1,0-0.2,0-0.2-0.1c-0.1-0.1-0.1-0.1-0.1-0.2c0-0.1,0.1-0.2,0.1-0.3c0-0.1,0.1,0,0.1,0
		c0,0,0.1,0,0.1,0.1c0,0.1-0.1,0.2-0.1,0.3c0,0.1,0,0.1,0,0.1c0.1,0,0.1,0,0.1-0.1c0-0.1,0.1-0.2,0.1-0.3c0-0.1,0.1,0,0.1,0
		c0,0,0.1,0,0.1,0.1c0,0.1-0.1,0.2-0.1,0.3C7.6,19.8,7.5,19.8,7.4,19.8z"/>
	<path class="st1" d="M9.3,19.8c0-0.1,0-0.2,0-0.3c0,0,0-0.1,0.1-0.1c0.1,0,0.2,0,0.3,0c0.1,0,0.2,0.1,0.2,0.2
		c0,0.1-0.1,0.2-0.2,0.2c0,0,0,0-0.1,0c-0.1,0-0.1,0-0.1,0.1c0,0,0,0.1-0.1,0.1c0,0-0.1,0-0.1-0.1C9.3,20,9.3,19.9,9.3,19.8
		C9.3,19.8,9.3,19.8,9.3,19.8z M9.6,19.8C9.6,19.8,9.7,19.8,9.6,19.8c0.1-0.1,0-0.1,0-0.1C9.5,19.6,9.5,19.7,9.6,19.8
		C9.5,19.8,9.5,19.8,9.6,19.8z"/>
	<path class="st1" d="M9.8,20.1c0.1-0.2,0.1-0.4,0.2-0.6c0,0,0-0.1,0.1-0.1c0.1,0,0.1,0,0.2,0c0.1,0.2,0.1,0.3,0.2,0.5
		c0,0,0,0.1,0,0.1c-0.1,0-0.1,0-0.2-0.1c0,0-0.2,0-0.2,0C10,20.2,9.9,20.1,9.8,20.1z M10.1,19.7c0,0,0,0.1,0,0.1c0,0,0,0,0,0.1
		c0,0,0,0,0.1,0c0,0,0,0,0-0.1C10.2,19.8,10.1,19.8,10.1,19.7z"/>
	<path class="st1" d="M11.8,19.9c0-0.2,0-0.4,0.1-0.6c0-0.1,0.1,0,0.1-0.1c0,0,0,0,0.1,0c0.1,0.1,0.2,0.3,0.3,0.4c0,0,0,0.1,0,0.1
		c-0.1,0-0.1,0.1-0.2,0c0,0-0.2,0-0.2,0C12,19.9,11.8,19.9,11.8,19.9z M12,19.4c0,0.1,0,0.1,0,0.2c0,0,0.1,0,0.1,0
		C12.1,19.5,12,19.5,12,19.4z"/>
	<path class="st1" d="M6.7,19.4C6.7,19.4,6.7,19.4,6.7,19.4C6.8,19.5,6.8,19.4,6.7,19.4c0.1-0.1,0.2-0.2,0.2-0.3C6.9,19,7,19,7,19.1
		c0,0,0.1,0,0.1,0.1C7,19.3,7,19.4,7,19.5c-0.1,0.1-0.2,0.1-0.3,0.1c-0.1-0.1-0.2-0.1-0.1-0.3c0,0,0-0.1,0.1-0.1
		C6.6,19.3,6.7,19.3,6.7,19.4z"/>
	<path class="st0" d="M9.5,14.7c0-0.1-0.1-0.3-0.1-0.4c0,0,0,0,0-0.1c0,0,0,0,0.1,0c0.2,0,0.3-0.1,0.3-0.2c0,0,0-0.1,0-0.1
		c0,0,0,0,0,0.1c0.1,0.1,0.2,0.2,0.3,0.2c0.1,0,0.1,0,0,0.1c-0.1,0.1-0.1,0.3-0.1,0.4c0,0.1,0,0.1-0.1,0C9.8,14.7,9.7,14.8,9.5,14.7
		C9.5,14.8,9.4,14.8,9.5,14.7z M9.5,14.6c0,0.1,0,0.1,0.1,0.1c0.1,0,0.2,0,0.2,0c0.1,0,0.1,0,0.1,0c0-0.1,0-0.2,0.1-0.3
		c0,0,0,0,0-0.1c0,0,0,0-0.1,0c-0.1,0-0.2,0-0.2-0.1c0-0.1-0.1-0.1-0.1,0c0,0.1-0.1,0.2-0.2,0.1c0,0,0,0,0,0c0,0,0,0,0,0
		C9.6,14.4,9.6,14.5,9.5,14.6C9.5,14.6,9.5,14.6,9.5,14.6z"/>
	<path class="st0" d="M13.1,6.5C13.1,6.6,13.1,6.6,13.1,6.5c-0.1,0-0.1,0-0.1,0C13,6.5,13,6.5,13.1,6.5C13.1,6.5,13.1,6.5,13.1,6.5z
		"/>
	<path class="st0" d="M6.9,6.5C6.9,6.5,6.9,6.6,6.9,6.5c-0.1,0.1-0.2,0-0.2-0.1c0-0.1,0-0.1,0.1-0.1C6.8,6.3,6.9,6.4,6.9,6.5z"/>
	<path class="st0" d="M6.3,6.6C6.3,6.6,6.4,6.6,6.3,6.6c0,0.1,0,0.1,0,0.1C6.3,6.7,6.2,6.7,6.3,6.6C6.2,6.6,6.3,6.6,6.3,6.6z"/>
	<path class="st3" d="M12.5,19.4C12.5,19.4,12.5,19.4,12.5,19.4C12.5,19.4,12.5,19.4,12.5,19.4C12.5,19.4,12.5,19.4,12.5,19.4z"/>
	<path class="st0" d="M11.5,19.7c0,0.1,0,0.1-0.1,0.1c-0.1,0-0.1-0.1-0.1-0.1c0,0,0-0.1,0-0.1c0,0-0.1-0.1,0-0.1c0.1,0,0.1,0,0.1,0
		C11.5,19.6,11.5,19.7,11.5,19.7z"/>
	<path class="st0" d="M9.6,19.8C9.5,19.8,9.5,19.8,9.6,19.8c-0.1-0.1-0.1-0.1,0-0.1C9.6,19.7,9.7,19.7,9.6,19.8
		C9.7,19.8,9.6,19.8,9.6,19.8z"/>
	<path class="st0" d="M10.1,19.7c0,0,0,0.1,0,0.1c0,0,0,0,0,0.1c0,0,0,0-0.1,0c0,0,0,0,0-0.1C10.1,19.8,10.1,19.8,10.1,19.7z"/>
	<path class="st0" d="M12,19.4c0,0.1,0.1,0.1,0.1,0.2c0,0-0.1,0-0.1,0C12,19.6,12,19.5,12,19.4z"/>
	<path class="st1" d="M9.5,14.6C9.5,14.6,9.5,14.6,9.5,14.6c0-0.1,0-0.2-0.1-0.2c0,0,0,0,0,0c0,0,0,0,0,0c0.1,0,0.1-0.1,0.2-0.1
		c0-0.1,0.1-0.1,0.1,0c0,0.1,0.1,0.1,0.2,0.1c0,0,0.1,0,0.1,0c0,0,0,0.1,0,0.1c-0.1,0.1-0.1,0.2-0.1,0.3c0,0.1,0,0.1-0.1,0
		c-0.1,0-0.2,0-0.2,0C9.6,14.7,9.5,14.7,9.5,14.6z M9.7,14.4C9.7,14.3,9.6,14.3,9.7,14.4c-0.1,0-0.1,0-0.1,0
		C9.6,14.4,9.6,14.4,9.7,14.4C9.6,14.4,9.7,14.4,9.7,14.4z M9.8,14.3C9.8,14.2,9.8,14.2,9.8,14.3C9.7,14.2,9.7,14.2,9.8,14.3
		C9.7,14.3,9.7,14.3,9.8,14.3C9.8,14.3,9.8,14.3,9.8,14.3z M9.7,14.6C9.7,14.6,9.7,14.6,9.7,14.6C9.7,14.5,9.7,14.5,9.7,14.6
		C9.6,14.5,9.6,14.5,9.7,14.6C9.6,14.6,9.6,14.6,9.7,14.6z M9.9,14.4C9.9,14.3,9.9,14.3,9.9,14.4C9.8,14.3,9.8,14.3,9.9,14.4
		C9.8,14.4,9.8,14.4,9.9,14.4C9.9,14.4,9.9,14.4,9.9,14.4z M9.9,14.5C9.9,14.5,9.9,14.5,9.9,14.5C9.8,14.5,9.8,14.5,9.9,14.5
		C9.8,14.6,9.8,14.6,9.9,14.5C9.9,14.6,9.9,14.6,9.9,14.5z"/>
	<path class="st0" d="M9.7,14.4C9.7,14.4,9.6,14.4,9.7,14.4c-0.1,0-0.1,0-0.1,0C9.6,14.3,9.6,14.3,9.7,14.4
		C9.6,14.3,9.7,14.3,9.7,14.4z"/>
	<path class="st0" d="M9.8,14.3C9.8,14.3,9.8,14.3,9.8,14.3C9.7,14.3,9.7,14.3,9.8,14.3C9.7,14.2,9.7,14.2,9.8,14.3
		C9.8,14.2,9.8,14.2,9.8,14.3z"/>
	<path class="st0" d="M9.7,14.6C9.6,14.6,9.6,14.6,9.7,14.6C9.6,14.5,9.6,14.5,9.7,14.6C9.7,14.5,9.7,14.5,9.7,14.6
		C9.7,14.6,9.7,14.6,9.7,14.6z"/>
	<path class="st0" d="M9.9,14.4C9.9,14.4,9.9,14.4,9.9,14.4C9.8,14.4,9.8,14.4,9.9,14.4C9.8,14.3,9.8,14.3,9.9,14.4
		C9.9,14.3,9.9,14.3,9.9,14.4z"/>
	<path class="st0" d="M9.9,14.5C9.9,14.6,9.9,14.6,9.9,14.5C9.8,14.6,9.8,14.6,9.9,14.5C9.8,14.5,9.8,14.5,9.9,14.5
		C9.9,14.5,9.9,14.5,9.9,14.5z"/>
</g>
</svg>
